<svg xmlns="http://www.w3.org/2000/svg" viewBox="0 0 690 1080"><defs><style>.cls-1{fill:#e20613;}.cls-12,.cls-13,.cls-14,.cls-2{fill:none;stroke:#800e13;}.cls-10,.cls-11,.cls-14,.cls-2,.cls-8,.cls-9{stroke-miterlimit:10;}.cls-2{stroke-width:3px;}.cls-3{fill:#640d14;}.cls-4{fill:#ad2831;}.cls-5{fill:#800e13;}.cls-6{fill:#250902;}.cls-7{fill:#38040e;}.cls-10,.cls-11,.cls-8,.cls-9{fill:#5046af;stroke:#250902;}.cls-10,.cls-12,.cls-13,.cls-8{stroke-linecap:round;}.cls-8{stroke-width:4.56px;}.cls-9{stroke-width:1.73px;}.cls-10{stroke-width:3.68px;}.cls-11{stroke-width:1.4px;}.cls-12,.cls-13{stroke-linejoin:round;}.cls-12{stroke-width:2.25px;}.cls-13{stroke-width:2.1px;}.cls-14{stroke-width:2.74px;}</style></defs><title>Mesa de trabajo 1</title><g id="Capa_3" data-name="Capa 3"><rect class="cls-1" x="-16" y="-14" width="737" height="1114"/></g><g id="Capa_2" data-name="Capa 2"><path class="cls-2" d="M454.59,739.32s2,12-7.72,12.49H408.59V728.32h-55s-2-78,0-97.23H328.5"/><circle class="cls-3" cx="310.63" cy="631.09" r="0.99"/><polygon class="cls-3" points="311.82 630.29 313.53 630.29 313.53 629.84 317.74 629.84 317.74 632.34 313.53 632.34 313.53 631.9 311.82 631.9 311.82 632.34 311.09 632.34 311.09 629.84 311.82 629.84 311.82 630.29"/><polygon class="cls-3" points="326.41 629.01 326.41 629.5 324.76 629.5 324.76 629.01 315.26 629.01 315.26 633.17 324.76 633.17 324.76 632.73 326.41 632.73 326.41 633.17 328.15 633.17 328.15 629.01 326.41 629.01"/><polygon class="cls-3" points="314.75 629.84 315.26 632.34 315.26 629.84 314.75 629.84"/><rect class="cls-3" x="323.97" y="630.29" width="3.22" height="1.65" transform="translate(-305.53 956.7) rotate(-90)"/><path class="cls-4" d="M634.69,275.9c-8.86-10.43-11.58-25.73-7-39.22a31.78,31.78,0,0,0,1.71-10.29c0-19.46-17.65-35.24-39.43-35.24s-39.43,15.78-39.43,35.24a31.78,31.78,0,0,0,1.71,10.29c4.61,13.49,1.88,28.79-7,39.22a46.56,46.56,0,0,0-11.39,30.29c0,27.69,25.11,50.13,56.09,50.13s56.1-22.44,56.1-50.13A46.57,46.57,0,0,0,634.69,275.9Z"/><circle class="cls-5" cx="590.02" cy="251.25" r="23.1" transform="translate(247.01 793.09) rotate(-80.73)"/><circle class="cls-3" cx="589.99" cy="246.94" r="23.1"/><path class="cls-5" d="M590,229.5a17.44,17.44,0,1,1-17.44,17.44A17.46,17.46,0,0,1,590,229.5m0-5.66a23.1,23.1,0,1,0,23.1,23.1,23.1,23.1,0,0,0-23.1-23.1Z"/><path class="cls-3" d="M613.09,308.52a6.88,6.88,0,0,1-6.88,6.88H573.77a6.88,6.88,0,0,1-6.88-6.88h0a6.88,6.88,0,0,1,6.88-6.87h32.44a6.88,6.88,0,0,1,6.88,6.87Z"/><polygon class="cls-4" points="597.97 78.91 582.01 78.91 578.6 246.94 601.39 246.94 597.97 78.91"/><polygon class="cls-5" points="598.74 113.92 598.04 78.97 582.09 78.97 581.37 113.91 598.74 113.92"/><rect class="cls-3" x="578.6" y="64.32" width="22.79" height="40.59"/><rect class="cls-5" x="572.67" y="72.1" width="34.65" height="4.24"/><rect class="cls-5" x="572.67" y="82.71" width="34.65" height="4.24"/><rect class="cls-5" x="572.67" y="93.32" width="34.65" height="4.24"/><path class="cls-3" d="M576.65,74.22a3.77,3.77,0,1,1-3.77-3.77A3.77,3.77,0,0,1,576.65,74.22Z"/><circle class="cls-3" cx="572.67" cy="84.83" r="3.77"/><circle class="cls-3" cx="572.67" cy="95.44" r="3.77"/><circle class="cls-3" cx="607.42" cy="74.22" r="3.77"/><circle class="cls-3" cx="607.21" cy="84.83" r="3.77"/><circle class="cls-3" cx="607.21" cy="95.44" r="3.77"/><rect class="cls-5" x="589.29" y="109.94" width="1.41" height="137"/><rect class="cls-5" x="592.82" y="109.93" width="1.41" height="137.01" transform="translate(-1.81 6.14) rotate(-0.59)"/><rect class="cls-5" x="596.36" y="109.92" width="1.41" height="137.03" transform="translate(-3.56 12.36) rotate(-1.18)"/><rect class="cls-5" x="517.95" y="177.73" width="137.01" height="1.41" transform="translate(401.95 763.02) rotate(-89.41)"/><rect class="cls-5" x="514.4" y="177.73" width="137.03" height="1.41" transform="translate(392.44 757.54) rotate(-88.81)"/><rect class="cls-5" x="178.7" y="943.91" width="10.67" height="78.5"/><rect class="cls-5" x="176.16" y="941.63" width="15.75" height="4.57"/><rect class="cls-5" x="201.56" y="943.91" width="10.67" height="78.5"/><rect class="cls-5" x="199.02" y="941.63" width="15.75" height="4.57"/><rect class="cls-5" x="155.83" y="943.91" width="10.67" height="78.5"/><path class="cls-4" d="M329.29,939.32s-27.85,10.31-28.2,10.31L139.4,954.2a36.89,36.89,0,0,0-35,25.41h-48a5.34,5.34,0,0,0,0,10.67h46.24c0,.25,0,.5,0,.76a36.89,36.89,0,0,0,36.84,36.84H232a24.14,24.14,0,0,0,0-48.27H115.86a26.2,26.2,0,0,1,23.54-14.74l161.69,4.57c.35,0,28.2,10.31,28.2,10.31Zm-97.3,51a13.47,13.47,0,0,1,0,26.93H139.4A26.2,26.2,0,0,1,113.23,991c0-.26,0-.51,0-.76Z"/><rect class="cls-3" x="329.29" y="939.32" width="8" height="40.41"/><path class="cls-5" d="M113.23,991c0-.26,0-.51,0-.76H102.57c0,.25,0,.5,0,.76a36.85,36.85,0,0,0,1,8.32h11.09A26.06,26.06,0,0,1,113.23,991Z"/><path class="cls-5" d="M121.36,972.11H107.82a36.43,36.43,0,0,0-3.44,7.5h11.48A26.47,26.47,0,0,1,121.36,972.11Z"/><rect class="cls-3" x="46.02" y="979.61" width="14.89" height="10.67"/><rect class="cls-3" x="42.46" y="977.32" width="7.37" height="16.01"/><path class="cls-5" d="M203.73,1041.09h-40a18.68,18.68,0,0,1,0-37.35h40a18.68,18.68,0,1,1,0,37.35Zm-40-29.73a11.06,11.06,0,0,0,0,22.11h40a11.06,11.06,0,1,0,0-22.11Z"/><rect class="cls-5" x="153.29" y="941.63" width="15.75" height="4.57"/><path class="cls-4" d="M554.27,573.28c.39,37.43-.66,65.91-1.6,93.21a9.56,9.56,0,0,1-9.79,9.23h0a9.57,9.57,0,0,1-9.32-9c-5.34-85.9-3.36-48.37-10.79-202.11a10.73,10.73,0,0,0-2.25-6.07c-3.89-5-11.49-5.11-16-.63l-27.45,27.38,1.59,8L501,482.47s2,118.27,1.59,181.74c.48,7.89-1.8,18.14,4.27,31,12,25.67,43.91,35,68.15,22.33,21.43-11,25.45-30.13,26.69-32.41,12.72-31.09,25.92-62.07,40.34-92.78Z"/><path class="cls-3" d="M642.06,597.86a5.31,5.31,0,0,1-1.17-.13l-87.79-19.1a5.48,5.48,0,1,1,2.33-10.7L643.22,587a5.48,5.48,0,0,1-1.16,10.83Z"/><rect class="cls-5" x="516.62" y="538.17" width="15.33" height="10.95" transform="translate(-16.61 16.53) rotate(-1.78)"/><path class="cls-5" d="M534.37,554.11a3.27,3.27,0,0,1-3.28-3.18l-.47-15a3.29,3.29,0,0,1,6.57-.21l.46,15a3.27,3.27,0,0,1-3.18,3.38Z"/><rect class="cls-5" x="517.44" y="564.45" width="15.33" height="10.95" transform="translate(-17.43 16.56) rotate(-1.78)"/><path class="cls-5" d="M535.18,580.39a3.29,3.29,0,0,1-3.28-3.18l-.46-15A3.29,3.29,0,0,1,538,562l.46,15a3.28,3.28,0,0,1-3.18,3.38Z"/><rect class="cls-5" x="518.25" y="590.73" width="15.33" height="10.95" transform="translate(-18.24 16.6) rotate(-1.78)"/><path class="cls-5" d="M536,606.67a3.27,3.27,0,0,1-3.28-3.18l-.47-15a3.29,3.29,0,0,1,6.57-.2l.47,15a3.29,3.29,0,0,1-3.19,3.39Z"/><rect class="cls-5" x="519" y="614.82" width="15.33" height="10.95" transform="translate(-18.99 16.64) rotate(-1.78)"/><path class="cls-5" d="M536.75,630.76a3.29,3.29,0,0,1-3.29-3.18l-.46-15a3.29,3.29,0,1,1,6.57-.2l.46,15a3.29,3.29,0,0,1-3.18,3.39Z"/><polygon class="cls-5" points="554.25 578.94 639.71 597.23 635.91 605.55 554.25 578.94"/><polygon class="cls-5" points="477.05 485.24 480.64 492.24 463.7 502.63 465.9 494.07 477.05 485.24"/><path class="cls-5" d="M480.68,494.49a2.19,2.19,0,0,1-1.95-1.19l-3.59-7a2.19,2.19,0,0,1,3.9-2l3.59,7a2.19,2.19,0,0,1-.95,2.95A2.23,2.23,0,0,1,480.68,494.49Z"/><rect class="cls-4" x="430.54" y="826.87" width="211.04" height="15.63" transform="translate(1072.13 1669.36) rotate(180)"/><rect class="cls-4" x="430.54" y="781.92" width="211.04" height="15.63" transform="translate(1072.13 1579.48) rotate(180)"/><rect class="cls-3" x="604.08" y="738.49" width="28.72" height="144.6" transform="translate(1236.87 1621.58) rotate(180)"/><rect class="cls-3" x="562.62" y="746.74" width="28.72" height="128.1" transform="translate(1153.96 1621.58) rotate(180)"/><rect class="cls-3" x="521.17" y="754.07" width="28.72" height="113.45" transform="translate(1071.06 1621.58) rotate(180)"/><rect class="cls-3" x="479.72" y="763.35" width="28.72" height="94.88" transform="translate(988.15 1621.58) rotate(180)"/><rect class="cls-3" x="438.26" y="773.12" width="28.72" height="75.34" transform="translate(905.24 1621.58) rotate(180)"/><path class="cls-4" d="M611.2,868a6.89,6.89,0,1,1,6.89,6.89A6.9,6.9,0,0,1,611.2,868Z"/><path class="cls-4" d="M611.2,756.57a6.89,6.89,0,1,1,6.89,6.89A6.89,6.89,0,0,1,611.2,756.57Z"/><path class="cls-4" d="M570.09,860.62a6.89,6.89,0,1,1,6.89,6.89A6.9,6.9,0,0,1,570.09,860.62Z"/><path class="cls-4" d="M570.09,761a6.89,6.89,0,1,1,6.89,6.89A6.89,6.89,0,0,1,570.09,761Z"/><rect class="cls-4" x="382.3" y="626.67" width="7.91" height="40.83"/><path class="cls-3" d="M389.91,665.47c1.47,3.56-1.87,8.31-7.46,10.62s-11.3,1.29-12.77-2.27,1.87-8.31,7.46-10.62S388.44,661.91,389.91,665.47Z"/><rect class="cls-4" x="411.82" y="618.45" width="7.91" height="40.83"/><path class="cls-3" d="M419.39,657.25c1.46,3.56-1.87,8.31-7.46,10.62s-11.3,1.29-12.77-2.27,1.87-8.31,7.45-10.61S417.92,653.7,419.39,657.25Z"/><polygon class="cls-5" points="419.69 610.35 382.25 618.24 382.25 632.18 419.68 624.28 419.69 610.35"/><rect class="cls-3" x="331.48" y="74.25" width="12.05" height="2.13" transform="translate(675.01 150.63) rotate(-180)"/><path class="cls-5" d="M341,82.74h0a2.52,2.52,0,0,0,2.51-2.51V70.4A2.51,2.51,0,0,0,341,67.89h0a2.51,2.51,0,0,0-2.51,2.51v9.83A2.51,2.51,0,0,0,341,82.74Z"/><path class="cls-5" d="M343.37,82.58a3.33,3.33,0,0,1-5.68-2.35V70.4a3.33,3.33,0,1,1,6.65,0v9.83A3.31,3.31,0,0,1,343.37,82.58ZM339.82,69.2a1.68,1.68,0,0,0-.5,1.2v9.83a1.7,1.7,0,0,0,.5,1.2,1.67,1.67,0,0,0,1.2.49,1.74,1.74,0,0,0,1.7-1.69V70.4a1.68,1.68,0,0,0-.5-1.2,1.7,1.7,0,0,0-1.2-.5A1.68,1.68,0,0,0,339.82,69.2Z"/><rect class="cls-3" x="331.48" y="56.58" width="12.05" height="2.13" transform="translate(675.01 115.28) rotate(180)"/><path class="cls-5" d="M341,65.07h0a2.52,2.52,0,0,0,2.51-2.51V52.73A2.51,2.51,0,0,0,341,50.22h0a2.51,2.51,0,0,0-2.51,2.51v9.83A2.51,2.51,0,0,0,341,65.07Z"/><path class="cls-5" d="M343.37,64.91a3.33,3.33,0,0,1-5.68-2.35V52.73A3.35,3.35,0,0,1,341,49.4a3.33,3.33,0,0,1,3.32,3.33v9.83A3.31,3.31,0,0,1,343.37,64.91Zm-3.55-13.38a1.68,1.68,0,0,0-.5,1.2v9.83a1.7,1.7,0,0,0,1.7,1.69,1.74,1.74,0,0,0,1.7-1.69V52.73A1.7,1.7,0,0,0,341,51,1.68,1.68,0,0,0,339.82,51.53Z"/><rect class="cls-3" x="307.83" y="59.03" width="11.96" height="2.13"/><path class="cls-5" d="M310.32,67.52h0a2.49,2.49,0,0,1-2.49-2.5V55.17a2.48,2.48,0,0,1,2.49-2.49h0a2.48,2.48,0,0,1,2.49,2.49V65A2.49,2.49,0,0,1,310.32,67.52Z"/><path class="cls-5" d="M312.66,67.36A3.31,3.31,0,0,1,307,65V55.17a3.31,3.31,0,0,1,6.62,0V65A3.28,3.28,0,0,1,312.66,67.36ZM309.13,54a1.66,1.66,0,0,0-.49,1.19V65a1.69,1.69,0,0,0,1.68,1.69A1.72,1.72,0,0,0,312,65V55.17a1.68,1.68,0,0,0-1.68-1.68A1.71,1.71,0,0,0,309.13,54Z"/><rect class="cls-3" x="307.83" y="41.37" width="11.96" height="2.13"/><path class="cls-3" d="M325.64,35H315.36V79.69a3.12,3.12,0,0,0,3.12,3.12h14.31a3.12,3.12,0,0,0,3.12-3.12V35Z"/><path class="cls-3" d="M335.57,82.47a3.91,3.91,0,0,1-2.78,1.15H318.48a3.93,3.93,0,0,1-3.93-3.93V34.2h22.17V79.69A3.93,3.93,0,0,1,335.57,82.47ZM316.18,35.83V79.69a2.29,2.29,0,0,0,2.3,2.3h14.31a2.35,2.35,0,0,0,2.3-2.3V35.83Z"/><path class="cls-4" d="M369.83,227.66c-10.56,0-19.12-10.61-19.12-23.69,0-12.27,7.53-22.37,17.18-23.57a31.32,31.32,0,0,0,.44-5.24c0-20.16-19.06-36.51-42.58-36.51S283.16,155,283.16,175.16a31.89,31.89,0,0,0,.45,5.28c9.53,1.34,16.94,11.36,16.94,23.53,0,13.08-8.56,23.69-19.12,23.69a15.6,15.6,0,0,1-4.83-.76A40.44,40.44,0,0,0,272,245.5c0,25.44,24.05,46.06,53.72,46.06s53.72-20.62,53.72-46.06a40.48,40.48,0,0,0-4.61-18.67A15.74,15.74,0,0,1,369.83,227.66Z"/><rect class="cls-5" x="318.85" y="85.89" width="13.57" height="146.22"/><path class="cls-5" d="M333.23,232.92H318V85.08h15.19Zm-13.56-1.63h11.94V86.7H319.67Z"/><path class="cls-3" d="M308,260.76H343.5a0,0,0,0,1,0,0v1.83a4.19,4.19,0,0,1-4.19,4.19H312.18a4.19,4.19,0,0,1-4.19-4.19v-1.83A0,0,0,0,1,308,260.76Z"/><rect class="cls-5" x="318.85" y="82.81" width="13.57" height="3.08"/><path class="cls-5" d="M333.23,86.7H318V82h15.19Zm-13.56-1.62H331.6V83.62H319.67Z"/><rect class="cls-5" x="329.61" y="52.87" width="1.87" height="29.94"/><rect class="cls-5" x="319.79" y="52.87" width="1.87" height="29.93"/><path class="cls-3" d="M325.64,35H315.36V48.64a10.27,10.27,0,0,0,10.28,10.27h0a10.27,10.27,0,0,0,10.27-10.27V35Z"/><path class="cls-5" d="M310.32,49.86h0a2.49,2.49,0,0,1-2.49-2.5V37.51A2.48,2.48,0,0,1,310.32,35h0a2.48,2.48,0,0,1,2.49,2.49v9.85A2.49,2.49,0,0,1,310.32,49.86Z"/><path class="cls-5" d="M312.66,49.7A3.31,3.31,0,0,1,307,47.36V37.51a3.31,3.31,0,0,1,6.62,0v9.85A3.29,3.29,0,0,1,312.66,49.7Zm-3.53-13.38a1.66,1.66,0,0,0-.49,1.19v9.85a1.69,1.69,0,0,0,1.68,1.69A1.73,1.73,0,0,0,312,47.36V37.51a1.68,1.68,0,0,0-2.87-1.19Z"/><path class="cls-3" d="M314.2,213.1a3.56,3.56,0,0,0-7.12,0,3.45,3.45,0,0,0,3.09,3.36,27.31,27.31,0,0,1-6,9,25,25,0,0,1-8.26,5.21,8.5,8.5,0,0,1,1.45,5.7c-.33,3.41-2,10.6,1.13,14.81h0a12,12,0,0,0,1.91,2.32h0a3.64,3.64,0,0,0,2.5,1,3.4,3.4,0,1,0,0-6.79,3.6,3.6,0,0,0-2.74,1.24,13.56,13.56,0,0,1-.56-5.73c.5-4.26,1.25-6.57,3-8.48s6.06-2.07,6.06-2.07a6.15,6.15,0,0,1,.16-6.55c2.18-3.67,5.35-8.85,5.42-12.84h0C314.19,213.23,314.2,213.16,314.2,213.1Z"/><path class="cls-3" d="M337.07,213.1a3.56,3.56,0,0,1,7.12,0,3.45,3.45,0,0,1-3.09,3.36,27.47,27.47,0,0,0,6,9,25,25,0,0,0,8.26,5.21,8.5,8.5,0,0,0-1.45,5.7c.33,3.41,2,10.6-1.13,14.81h0a12,12,0,0,1-1.91,2.32h0a3.62,3.62,0,0,1-2.5,1,3.4,3.4,0,1,1,0-6.79,3.6,3.6,0,0,1,2.74,1.24,13.53,13.53,0,0,0,.57-5.73c-.51-4.26-1.26-6.57-3-8.48s-6.06-2.07-6.06-2.07a6.15,6.15,0,0,0-.16-6.55c-2.18-3.67-5.35-8.85-5.42-12.84h0C337.08,213.23,337.07,213.16,337.07,213.1Z"/><path class="cls-6" d="M306.61,764.17a6.66,6.66,0,0,1,5.45,2.6l.09.11c.49.66.94,1.25,5.69,16.09A60.51,60.51,0,0,1,336,777.29a8,8,0,0,1,14.67-.41,61.73,61.73,0,0,1,21.41,6c1.61-5.61,1.9-6,2.26-6.55l.07-.11a6.66,6.66,0,0,1,5.32-2.84,6.76,6.76,0,0,1,7,6.43v.1c0,.7,0,1.26-2.1,8.39a7.9,7.9,0,0,1,5.66,2.22,8,8,0,0,1,2.06,8.28A60.88,60.88,0,0,1,406,829.56a8,8,0,0,1,.32,14.42,60.79,60.79,0,0,1-12.22,31.28,8,8,0,0,1-7.26,10.91,7.92,7.92,0,0,1-2.83-.45A60.75,60.75,0,0,1,353.49,899a8,8,0,0,1-14.74.26,60.88,60.88,0,0,1-30.61-12,8,8,0,0,1-11.39-7.06,8,8,0,0,1,.62-3.3A60.78,60.78,0,0,1,284.23,847a8,8,0,0,1-.35-15,60.88,60.88,0,0,1,11.76-30.51,8,8,0,0,1,1.46-8.92,7.94,7.94,0,0,1,5.6-2.47,7.75,7.75,0,0,1,3.18.58l.5-.41C300,772.71,300,771.88,299.94,771v-.13A6.74,6.74,0,0,1,306.61,764.17Z"/><circle class="cls-3" cx="346.07" cy="896.06" r="4.38" transform="translate(-602.45 1047.72) rotate(-77.97)"/><circle class="cls-3" cx="343.44" cy="780.26" r="4.38" transform="translate(-491.27 953.49) rotate(-77.97)"/><circle class="cls-3" cx="286.85" cy="839.47" r="4.38" transform="translate(-593.97 945.01) rotate(-77.97)"/><path class="cls-3" d="M402.56,832.46a4.39,4.39,0,1,1-4.29,4.48A4.39,4.39,0,0,1,402.56,832.46Z"/><path class="cls-3" d="M301.57,877a4.39,4.39,0,1,1,.14,6.2A4.39,4.39,0,0,1,301.57,877Z"/><path class="cls-3" d="M381.6,793.26a4.39,4.39,0,1,1,.14,6.2A4.38,4.38,0,0,1,381.6,793.26Z"/><path class="cls-3" d="M383.6,881.34a4.38,4.38,0,1,1,6.2-.14A4.38,4.38,0,0,1,383.6,881.34Z"/><path class="cls-3" d="M299.85,801.31a4.39,4.39,0,1,1,6.2-.14A4.39,4.39,0,0,1,299.85,801.31Z"/><circle class="cls-5" cx="345.07" cy="838.11" r="57.88" transform="translate(-18.91 8.04) rotate(-1.3)"/><path class="cls-5" d="M343.75,779.73a58.4,58.4,0,1,1-57.06,59.7A58.46,58.46,0,0,1,343.75,779.73Zm2.62,115.73a57.36,57.36,0,1,0-58.64-56.05A57.44,57.44,0,0,0,346.37,895.46Z"/><circle class="cls-4" cx="345.07" cy="838.11" r="53.57" transform="translate(-533.8 1059.67) rotate(-81.77)"/><path class="cls-4" d="M343.85,784A54.08,54.08,0,1,1,291,839.34,54.15,54.15,0,0,1,343.85,784Zm2.42,107.11A53.05,53.05,0,1,0,292,839.31,53.1,53.1,0,0,0,346.27,891.15Z"/><rect class="cls-7" x="338.38" y="883.62" width="15.52" height="3.4" transform="translate(712.26 1762.56) rotate(178.7)"/><path class="cls-3" d="M351.49,866.55c-.86,3-.2,5.76,1.48,6.25s3.75-1.52,4.61-4.47c.68-2.36.4-4.6-.59-5.67,2.94-8.95,26.22-80.09,26.13-82.61V780a3.17,3.17,0,0,0-5.73-1.67l-.05.07c-1.43,2.07-20,74.59-22.31,83.72C353.62,862.46,352.18,864.2,351.49,866.55Z"/><path class="cls-3" d="M379.82,776.47h0a3.68,3.68,0,0,1,3.81,3.48V780c.1,2.55-21.48,68.54-26.06,82.52,1,1.3,1.19,3.58.5,5.92-.83,2.85-2.69,4.87-4.52,4.92a2.5,2.5,0,0,1-.72-.1c-2-.58-2.79-3.6-1.83-6.88.68-2.34,2.07-4.16,3.6-4.73,5-19.48,20.9-81.56,22.31-83.6l0-.05A3.62,3.62,0,0,1,379.82,776.47Zm-26.29,95.88c1.34,0,2.87-1.82,3.55-4.17.61-2.09.42-4.21-.47-5.17l-.2-.22.09-.29c9.69-29.57,26.1-80.2,26.1-82.43V780a2.66,2.66,0,0,0-2.75-2.5h0a2.53,2.53,0,0,0-2.05,1.1l0,.06c-1.19,1.88-14.54,53.41-22.24,83.55l-.07.3-.29.08c-1.26.33-2.57,2-3.17,4.11-.77,2.63-.25,5.2,1.13,5.6A1.13,1.13,0,0,0,353.53,872.35Z"/><path class="cls-3" d="M339.07,856c1,2.92.45,5.74-1.2,6.3s-3.81-1.34-4.8-4.25c-.8-2.32-.62-4.58.32-5.69-3.33-8.81-29.82-78.82-29.84-81.34v-.08a3.18,3.18,0,0,1,5.66-1.93l0,.07c1.53,2,23.34,73.61,26.08,82.62C336.76,852,338.27,853.65,339.07,856Z"/><path class="cls-3" d="M306.68,767.26a3.59,3.59,0,0,1,2.93,1.41l.06.06c1.54,2,21.79,68.44,26.07,82.51,1.55.51,3,2.25,3.81,4.56a8.7,8.7,0,0,1,.42,4.3,3.21,3.21,0,0,1-1.94,2.66,2.47,2.47,0,0,1-.71.13c-1.83,0-3.78-1.9-4.74-4.71-.79-2.31-.69-4.59.23-5.93C327.6,838.49,303.05,773.54,303,771v-.09A3.67,3.67,0,0,1,306.68,767.26Zm30.61,94.6a1.85,1.85,0,0,0,.41-.07,2.26,2.26,0,0,0,1.25-1.88,7.61,7.61,0,0,0-.37-3.77c-.7-2.06-2.08-3.69-3.36-4l-.29-.06-.09-.29c-9.06-29.77-24.72-80.64-26-82.46l0-.06a2.54,2.54,0,0,0-2.1-1,2.65,2.65,0,0,0-2.63,2.62V771c.1,2.23,18.78,52.07,29.8,81.17l.11.28-.19.23c-.84,1-.94,3.13-.24,5.19C334.34,860.16,336,861.89,337.29,861.86Z"/><path class="cls-4" d="M480.77,978.2l-3.59,3.68-3.58,3.67s50.4,60.62,56.72,62.48l.53.14a11.69,11.69,0,0,0,14-14.33c-.05-.17-.1-.35-.16-.52C542.65,1027.05,480.77,978.2,480.77,978.2Z"/><ellipse class="cls-5" cx="459.65" cy="964.79" rx="33.21" ry="41.26" transform="translate(-552.02 620.4) rotate(-45.73)"/><path class="cls-5" d="M497.75,972.33A30.07,30.07,0,0,1,489.59,994c-13,13.33-37,11.08-53.5-5-9.09-8.87-14.39-20.43-14.53-31.72a30.07,30.07,0,0,1,8.16-21.64c13-13.33,37-11.08,53.5,5C492.31,949.48,497.61,961,497.75,972.33Zm-75.1-15.1c.14,11,5.31,22.28,14.2,30.95,16.07,15.67,39.38,17.92,52,5,5.24-5.38,8-12.6,7.85-20.87-.14-11-5.32-22.28-14.2-31-16.08-15.67-39.38-17.92-52-5C425.26,941.74,422.54,949,422.65,957.23Z"/><path class="cls-3" d="M434.62,986.14l45.74-46.92c-1-.91-2.1-1.75-3.19-2.55L432,983C432.81,984.07,433.69,985.12,434.62,986.14Z"/><path class="cls-3" d="M487.3,946.54c-.83-1.07-1.7-2.11-2.63-3.13l-45.75,46.92c1,.91,2.11,1.76,3.19,2.55Z"/><path class="cls-4" d="M555.37,953.91l-3.58,3.68-3.59,3.68s50.41,60.62,56.73,62.48l.53.14a11.7,11.7,0,0,0,14-14.33c0-.17-.1-.35-.16-.52C617.25,1002.77,555.37,953.91,555.37,953.91Z"/><ellipse class="cls-5" cx="534.26" cy="940.5" rx="33.21" ry="41.26" transform="translate(-512.11 666.49) rotate(-45.73)"/><path class="cls-3" d="M509.23,961.85,555,914.93c-1-.9-2.11-1.75-3.19-2.54L506.6,958.73C507.42,959.79,508.3,960.83,509.23,961.85Z"/><path class="cls-3" d="M561.9,922.25c-.82-1.06-1.7-2.1-2.62-3.12l-45.75,46.92c1,.9,2.1,1.75,3.19,2.55Z"/><path class="cls-4" d="M119,759.52c9-7.66,22.26-10,33.92-6a27.57,27.57,0,0,0,8.91,1.48c16.84,0,30.49-15.27,30.49-34.11s-13.65-34.11-30.49-34.11a27.57,27.57,0,0,0-8.91,1.48c-11.66,4-24.9,1.63-33.92-6a40.28,40.28,0,0,0-26.21-9.86c-23.95,0-43.37,21.73-43.37,48.53s19.42,48.53,43.37,48.53A40.28,40.28,0,0,0,119,759.52Z"/><circle class="cls-5" cx="140.36" cy="720.87" r="19.98" transform="matrix(0.16, -0.99, 0.99, 0.16, -593.71, 743.28)"/><circle class="cls-3" cx="144.08" cy="720.85" r="19.98"/><path class="cls-5" d="M159.17,720.85a15.09,15.09,0,1,1-15.09-15.09,15.11,15.11,0,0,1,15.09,15.09m4.89,0a20,20,0,1,0-20,20,20,20,0,0,0,20-20Z"/><path class="cls-3" d="M90.8,740.84a6,6,0,0,1-6-6V706.82a6,6,0,0,1,6-6h0a6,6,0,0,1,6,6v28.07a6,6,0,0,1-6,6Z"/><polygon class="cls-4" points="289.45 727.75 289.45 713.95 144.08 710.99 144.08 730.71 289.45 727.75"/><polygon class="cls-5" points="259.17 728.42 289.4 727.81 289.4 714.01 259.17 713.39 259.17 728.42"/><rect class="cls-3" x="274.65" y="703.29" width="19.72" height="35.12" transform="translate(1005.36 436.34) rotate(90)"/><rect class="cls-5" x="291.67" y="705.86" width="3.67" height="29.98"/><rect class="cls-5" x="282.49" y="705.86" width="3.67" height="29.98"/><rect class="cls-5" x="273.31" y="705.86" width="3.67" height="29.98"/><path class="cls-3" d="M293.5,709.31a3.27,3.27,0,1,1,3.27-3.26A3.26,3.26,0,0,1,293.5,709.31Z"/><circle class="cls-3" cx="284.33" cy="705.86" r="3.26"/><circle class="cls-3" cx="275.15" cy="705.86" r="3.26"/><circle class="cls-3" cx="293.5" cy="735.93" r="3.26"/><circle class="cls-3" cx="284.33" cy="735.75" r="3.26"/><circle class="cls-3" cx="275.15" cy="735.75" r="3.26"/><rect class="cls-5" x="144.08" y="720.24" width="118.53" height="1.22"/><rect class="cls-5" x="144.08" y="723.3" width="118.53" height="1.22" transform="translate(-7.46 2.14) rotate(-0.59)"/><rect class="cls-5" x="144.07" y="726.36" width="118.55" height="1.22" transform="translate(-14.96 4.35) rotate(-1.18)"/><rect class="cls-5" x="202.73" y="658.53" width="1.22" height="118.53" transform="translate(-516.52 913.69) rotate(-89.41)"/><rect class="cls-5" x="202.73" y="655.46" width="1.22" height="118.55" transform="translate(-515.45 903.23) rotate(-88.81)"/><path class="cls-5" d="M96.24,631a20.43,20.43,0,0,0-9.77,6.71l-30.42-10S54.67,619.07,61.5,616s10.79,3.36,10.79,3.36l14.18-1.57a14.55,14.55,0,0,0,9.77,5.43Z"/><path class="cls-4" d="M200.3,616.52v20.89s6.26,3.82,0,11.47-20.19,3.57-24.74,6.62,4.14,16.82,27.52,10.45,23.67-8.92,36.18-5.35,30.71,17.84,50.62,11.72,23.82-24.44,23.88-47.65c.07-23.75-12.22-36.69-24.74-42s-28.72,2.8-39.81,9.17-16.21,4.59-26.73-2-28.15-.76-28.15,1.53,16.21,6.12,21.33,11.47S216.23,618.05,200.3,616.52Z"/><rect class="cls-5" x="281.02" y="620.71" width="23.85" height="13.1" rx="2.87" transform="translate(-334.31 920.2) rotate(-90)"/><rect class="cls-5" x="148.74" y="564.33" width="12.38" height="126.07" transform="matrix(0, -1, 1, 0, -472.43, 782.28)"/><path class="cls-5" d="M218.76,620.38v14H91.1v-14Zm-1.59,12.37V622H92.69v10.78Z"/><path class="cls-3" d="M272.44,624.51h32.4a0,0,0,0,1,0,0v1.67A3.82,3.82,0,0,1,301,630H276.26a3.82,3.82,0,0,1-3.82-3.82v-1.67a0,0,0,0,1,0,0Z" transform="translate(-338.62 915.89) rotate(-90)"/><path class="cls-3" d="M290.83,611.61a4.61,4.61,0,0,1,1.35,3.27v24.76a4.61,4.61,0,0,1-4.62,4.61H285.1v-34h2.46A4.59,4.59,0,0,1,290.83,611.61Zm-4.14,31h.87a3,3,0,0,0,3-3V614.88a3.1,3.1,0,0,0-3-3h-.87Z"/><rect class="cls-3" x="87.11" y="625.95" width="12.38" height="2.81" transform="translate(-534.06 720.66) rotate(-90)"/><path class="cls-3" d="M95.5,620.38v14H91.1v-14Zm-1.59,12.37V622H92.69v10.78Z"/><rect class="cls-5" x="250.88" y="620.99" width="32.4" height="12.54" rx="3.28" transform="translate(-360.18 894.34) rotate(-90)"/><rect class="cls-5" x="221.61" y="620.99" width="32.4" height="12.54" rx="3.28" transform="translate(-389.45 865.07) rotate(-90)"/><path class="cls-5" d="M448.86,719.2H459a0,0,0,0,1,0,0v20.18a3.59,3.59,0,0,1-3.59,3.59h-2.92a3.59,3.59,0,0,1-3.59-3.59V719.2A0,0,0,0,1,448.86,719.2Z"/><path class="cls-4" d="M453.91,615.49H435.56l6.69,104.66a11.69,11.69,0,0,0,11.66,10.94h0a11.7,11.7,0,0,0,11.67-10.94l6.69-104.66Z"/><path class="cls-4" d="M462.56,728h0a12.22,12.22,0,0,1-20.84-7.85L435,615h37.85l0,.56-6.7,104.67A12.2,12.2,0,0,1,462.56,728ZM436.12,616l6.66,104.1a11.19,11.19,0,0,0,11.13,10.44,11.06,11.06,0,0,0,7.89-3.27h0a11.17,11.17,0,0,0,3.25-7.17L471.71,616Z"/><circle class="cls-3" cx="453.91" cy="590.14" r="27.74" transform="translate(-284.35 493.82) rotate(-45)"/><path class="cls-4" d="M481.52,592.81a26.09,26.09,0,0,0,.13-2.67,27.94,27.94,0,0,0-.26-3.79l-3.82-3.82,2.27-2.27a27.34,27.34,0,0,0-1.12-2.53l-3,3-5.54-5.54,4-4c-.59-.63-1.2-1.23-1.85-1.8l-3.94,3.94-5.95-6,2.64-2.65a25.92,25.92,0,0,0-2.63-1l-1.83,1.83-2.91-2.91a27.83,27.83,0,0,0-7.59,0L446.79,566l-2-2q-1.32.46-2.58,1l2.8,2.81-5.53,5.53-3.94-3.94c-.65.57-1.26,1.17-1.85,1.8l4,4-6,6-2.83-2.84c-.39.84-.75,1.7-1.06,2.58l2.07,2.08-3.4,3.4a27.94,27.94,0,0,0-.26,3.79,26.09,26.09,0,0,0,.13,2.67l3.53,3.54-2.32,2.33a25.92,25.92,0,0,0,1,2.63l3.14-3.14,6,6-4.44,4.44c.57.64,1.17,1.26,1.8,1.85l4.46-4.46,5.53,5.53L441.5,615a27.27,27.27,0,0,0,2.53,1.11l2.76-2.76,4.46,4.45a27.38,27.38,0,0,0,5.33,0l4-4,2.57,2.57a27.71,27.71,0,0,0,2.57-1.06l-3.32-3.33,5.95-5.95,4.46,4.46c.63-.59,1.23-1.21,1.8-1.85l-4.44-4.44,5.54-5.53,3.3,3.3c.39-.84.74-1.7,1.05-2.59l-2.53-2.53Zm-7.6-10.28-5.3,5.3-5.53-5.54,5.3-5.3Zm-21.83,7.12-5.95,6-5.95-6,5.95-5.95ZM448,581.87l5.53-5.53,6,5.95-5.54,5.54Zm6,9.6,5.54,5.53-6,6L448,597.42Zm1.83-1.82,5.53-5.53,5.53,5.53-5.53,5.53Zm10.83-14.48-5.3,5.3-5.95-6,5.3-5.3Zm-12.66-12.65,4.88,4.88-5.3,5.3-4.88-4.88Zm-7.12,7.12,4.88,4.88-5.53,5.53-4.88-4.88ZM439.44,577l4.88,4.88-5.95,6L433.49,583Zm-12.66,12.66,4.88-4.88,4.88,4.88-4.88,4.88Zm6.71,6.7,4.88-4.88,5.95,5.95-4.88,4.88Zm7.77,7.77,4.88-4.88,5.53,5.54-4.88,4.88Zm12.65,12.66-5.3-5.3,4.88-4.88,5.3,5.3Zm6.71-6.7-5.3-5.3,5.95-6,5.3,5.3Zm7.77-7.78-5.3-5.3,5.53-5.53,5.3,5.3Zm2.06-12.65,5.3-5.3,5.3,5.3-5.3,5.3Z"/><rect class="cls-5" x="433.44" y="608.85" width="40.94" height="13.27"/><path class="cls-5" d="M474.92,622.66h-42V608.32h42ZM434,621.59h39.87v-12.2H434Z"/><path class="cls-5" d="M265,94.14a16.72,16.72,0,0,1,8,5.51l25-8.17s1.12-7.13-4.48-9.64-8.87,2.76-8.87,2.76l-11.65-1.29a11.91,11.91,0,0,1-8,4.45Z"/><path class="cls-4" d="M179.56,82.25V99.41s-5.13,3.14,0,9.42,16.59,2.93,20.32,5.44-3.4,13.82-22.6,8.58-19.44-7.32-29.71-4.39-25.23,14.65-41.58,9.63S86.43,108,86.37,89c-.05-19.51,10-30.14,20.32-34.53s23.59,2.3,32.7,7.53,13.31,3.77,22-1.67,23.12-.63,23.12,1.25S171.16,66.56,167,71,166.48,83.51,179.56,82.25Z"/><rect class="cls-5" x="93.68" y="85.69" width="19.59" height="10.76" rx="2.36" transform="translate(12.4 194.54) rotate(-90)"/><rect class="cls-5" x="211.75" y="39.39" width="10.17" height="103.54" transform="translate(125.67 307.99) rotate(-90)"/><path class="cls-5" d="M269.25,85.42V96.89H164.41V85.42ZM268,95.59V86.73H165.71v8.86Z"/><path class="cls-3" d="M96.84,88.82h20.33A3.14,3.14,0,0,1,120.32,92v1.37a0,0,0,0,1,0,0H93.7a0,0,0,0,1,0,0V92A3.14,3.14,0,0,1,96.84,88.82Z" transform="translate(15.94 198.08) rotate(-90)"/><path class="cls-3" d="M107.89,77.11h2V105h-2a3.79,3.79,0,0,1-3.79-3.79V80.91a3.79,3.79,0,0,1,3.79-3.8Zm.72,1.31h-.72a2.54,2.54,0,0,0-2.48,2.49v20.33a2.48,2.48,0,0,0,2.48,2.49h.72Z"/><rect class="cls-3" x="262.36" y="90" width="10.17" height="2.31" transform="translate(176.29 358.6) rotate(-90)"/><path class="cls-3" d="M269.25,85.42V96.89h-3.61V85.42ZM268,95.59V86.73h-1v8.86Z"/><rect class="cls-5" x="111.41" y="85.92" width="26.61" height="10.3" rx="2.69" transform="translate(33.64 215.79) rotate(-90)"/><rect class="cls-5" x="135.45" y="85.92" width="26.61" height="10.3" rx="2.69" transform="translate(57.68 239.83) rotate(-90)"/><rect class="cls-5" x="92.06" y="794.37" width="128.54" height="120.03" transform="translate(312.67 1708.78) rotate(180)"/><line class="cls-8" x1="156.34" y1="794.37" x2="156.34" y2="914.41"/><line class="cls-8" x1="139.06" y1="794.37" x2="139.06" y2="914.41"/><line class="cls-8" x1="121.79" y1="794.37" x2="121.79" y2="914.41"/><line class="cls-8" x1="104.52" y1="794.37" x2="104.52" y2="914.41"/><line class="cls-8" x1="173.61" y1="794.37" x2="173.61" y2="914.41"/><line class="cls-8" x1="190.88" y1="794.37" x2="190.88" y2="914.41"/><line class="cls-8" x1="208.15" y1="794.37" x2="208.15" y2="914.41"/><rect class="cls-4" x="74.51" y="786.46" width="19.7" height="135.87" transform="translate(168.73 1708.78) rotate(180)"/><path class="cls-5" d="M51.47,794.37h18.9a4.14,4.14,0,0,1,4.14,4.14V910.27a4.14,4.14,0,0,1-4.14,4.14H51.47a0,0,0,0,1,0,0v-120a0,0,0,0,1,0,0Z" transform="translate(125.99 1708.78) rotate(180)"/><rect class="cls-4" x="220.61" y="786.46" width="42.74" height="135.87"/><rect class="cls-5" x="240.31" y="797.88" width="23.04" height="113.03"/><line class="cls-9" x1="74.51" y1="802.57" x2="51.48" y2="802.57"/><line class="cls-9" x1="74.51" y1="809.48" x2="51.48" y2="809.48"/><line class="cls-9" x1="74.51" y1="816.39" x2="51.48" y2="816.39"/><line class="cls-9" x1="74.51" y1="823.3" x2="51.48" y2="823.3"/><line class="cls-9" x1="74.51" y1="830.21" x2="51.48" y2="830.21"/><line class="cls-9" x1="74.51" y1="837.12" x2="51.48" y2="837.12"/><line class="cls-9" x1="74.51" y1="844.03" x2="51.48" y2="844.03"/><line class="cls-9" x1="74.51" y1="850.93" x2="51.48" y2="850.93"/><line class="cls-9" x1="74.51" y1="857.84" x2="51.48" y2="857.84"/><line class="cls-9" x1="74.51" y1="864.75" x2="51.48" y2="864.75"/><line class="cls-9" x1="74.51" y1="871.66" x2="51.48" y2="871.66"/><line class="cls-9" x1="74.51" y1="878.57" x2="51.48" y2="878.57"/><line class="cls-9" x1="74.51" y1="885.48" x2="51.48" y2="885.48"/><line class="cls-9" x1="74.51" y1="892.39" x2="51.48" y2="892.39"/><line class="cls-9" x1="74.51" y1="899.29" x2="51.48" y2="899.29"/><line class="cls-9" x1="74.51" y1="906.2" x2="51.48" y2="906.2"/><rect class="cls-4" x="62.38" y="800.37" width="12.13" height="4.32" transform="translate(136.89 1605.06) rotate(180)"/><rect class="cls-4" x="62.38" y="807.32" width="12.13" height="4.32" transform="translate(136.89 1618.97) rotate(180)"/><rect class="cls-4" x="62.38" y="821.12" width="12.13" height="4.32" transform="translate(136.89 1646.56) rotate(180)"/><rect class="cls-4" x="62.38" y="828.07" width="12.13" height="4.32" transform="translate(136.89 1660.46) rotate(180)"/><rect class="cls-4" x="62.38" y="834.96" width="12.13" height="4.32" transform="translate(136.89 1674.23) rotate(180)"/><rect class="cls-4" x="62.38" y="869.49" width="12.13" height="4.32" transform="translate(136.89 1743.3) rotate(180)"/><rect class="cls-4" x="62.38" y="876.44" width="12.13" height="4.32" transform="translate(136.89 1757.2) rotate(180)"/><rect class="cls-4" x="62.38" y="883.33" width="12.13" height="4.32" transform="translate(136.89 1770.97) rotate(180)"/><rect class="cls-4" x="62.38" y="897.12" width="12.13" height="4.32" transform="translate(136.89 1798.57) rotate(180)"/><rect class="cls-4" x="62.38" y="904.01" width="12.13" height="4.32" transform="translate(136.89 1812.34) rotate(180)"/><rect class="cls-4" x="62.38" y="848.79" width="12.13" height="4.32" transform="translate(136.89 1701.89) rotate(180)"/><rect class="cls-4" x="62.38" y="855.67" width="12.13" height="4.32" transform="translate(136.89 1715.66) rotate(180)"/><path class="cls-3" d="M245,807.29a2.75,2.75,0,1,0,2.74-2.74A2.74,2.74,0,0,0,245,807.29Z"/><circle class="cls-3" cx="247.71" cy="817.75" r="2.74"/><circle class="cls-3" cx="247.71" cy="828.2" r="2.74"/><path class="cls-3" d="M245,838.66a2.75,2.75,0,1,0,2.74-2.74A2.74,2.74,0,0,0,245,838.66Z"/><circle class="cls-3" cx="247.71" cy="849.12" r="2.74"/><circle class="cls-3" cx="247.71" cy="859.57" r="2.74"/><circle class="cls-3" cx="247.71" cy="870.03" r="2.74"/><path class="cls-3" d="M245,880.49a2.75,2.75,0,1,0,2.74-2.74A2.74,2.74,0,0,0,245,880.49Z"/><circle class="cls-3" cx="247.71" cy="890.95" r="2.74"/><path class="cls-3" d="M253.39,812.56a2.75,2.75,0,1,0,2.74-2.74A2.74,2.74,0,0,0,253.39,812.56Z"/><path class="cls-3" d="M253.39,823a2.75,2.75,0,1,0,2.74-2.74A2.74,2.74,0,0,0,253.39,823Z"/><path class="cls-3" d="M253.39,833.47a2.75,2.75,0,1,0,2.74-2.74A2.75,2.75,0,0,0,253.39,833.47Z"/><path class="cls-3" d="M253.39,843.93a2.75,2.75,0,1,0,2.74-2.74A2.74,2.74,0,0,0,253.39,843.93Z"/><path class="cls-3" d="M253.39,854.39a2.75,2.75,0,1,0,2.74-2.74A2.74,2.74,0,0,0,253.39,854.39Z"/><path class="cls-3" d="M253.39,864.85a2.75,2.75,0,1,0,2.74-2.75A2.74,2.74,0,0,0,253.39,864.85Z"/><path class="cls-3" d="M253.39,875.3a2.75,2.75,0,1,0,2.74-2.74A2.74,2.74,0,0,0,253.39,875.3Z"/><path class="cls-3" d="M253.39,885.76a2.75,2.75,0,1,0,2.74-2.74A2.74,2.74,0,0,0,253.39,885.76Z"/><path class="cls-3" d="M253.39,896.22a2.75,2.75,0,1,0,2.74-2.74A2.74,2.74,0,0,0,253.39,896.22Z"/><polygon class="cls-3" points="201.57 914.39 205.88 914.39 205.88 794.36 201.57 914.39"/><polygon class="cls-3" points="184.32 914.41 188.62 914.41 188.62 794.37 184.32 914.41"/><polygon class="cls-3" points="167.1 914.41 171.41 914.41 171.41 794.37 167.1 914.41"/><polygon class="cls-3" points="149.75 914.41 154.06 914.41 154.06 794.37 149.75 914.41"/><polygon class="cls-3" points="132.55 914.41 136.85 914.41 136.85 794.37 132.55 914.41"/><polygon class="cls-3" points="115.33 914.41 119.64 914.41 119.64 794.37 115.33 914.41"/><polygon class="cls-3" points="97.95 914.41 102.25 914.41 102.25 794.37 97.95 914.41"/><polygon class="cls-3" points="216.3 914.41 220.61 914.41 220.61 794.37 216.3 914.41"/><polygon class="cls-3" points="110.99 794.37 106.68 794.37 106.68 914.41 110.99 794.37"/><polygon class="cls-3" points="128.38 794.37 124.08 794.37 124.08 914.41 128.38 794.37"/><polygon class="cls-3" points="145.65 794.37 141.35 794.37 141.35 914.41 145.65 794.37"/><polygon class="cls-3" points="162.92 794.37 158.62 794.37 158.62 914.41 162.92 794.37"/><polygon class="cls-3" points="180.19 794.37 175.89 794.37 175.89 914.41 180.19 794.37"/><polygon class="cls-3" points="197.44 794.37 193.14 794.37 193.14 914.41 197.44 794.37"/><polygon class="cls-3" points="214.73 794.37 210.43 794.37 210.43 914.41 214.73 794.37"/><polygon class="cls-3" points="98.52 794.37 94.22 794.37 94.22 914.41 98.52 794.37"/><rect class="cls-4" x="586.78" y="487.37" width="7.91" height="40.83"/><path class="cls-3" d="M594.39,526.18c1.47,3.55-1.87,8.3-7.45,10.61s-11.31,1.29-12.78-2.27,1.87-8.31,7.46-10.61S592.92,522.62,594.39,526.18Z"/><rect class="cls-4" x="616.31" y="479.15" width="7.91" height="40.83"/><path class="cls-3" d="M623.87,518c1.47,3.55-1.87,8.31-7.46,10.61s-11.3,1.29-12.77-2.27,1.87-8.3,7.46-10.61S622.4,514.4,623.87,518Z"/><polygon class="cls-5" points="624.17 471.05 586.73 478.95 586.73 492.88 624.16 484.98 624.17 471.05"/><rect class="cls-5" x="341.84" y="488.14" width="8.69" height="63.96"/><rect class="cls-5" x="339.77" y="486.28" width="12.83" height="3.73"/><rect class="cls-5" x="323.21" y="488.14" width="8.69" height="63.96"/><rect class="cls-5" x="321.14" y="486.28" width="12.83" height="3.73"/><rect class="cls-5" x="360.47" y="488.14" width="8.69" height="63.96"/><path class="cls-4" d="M227.83,517.35s22.7-8.4,23-8.4l131.75-3.73a21.36,21.36,0,0,1,19.18,12H307.12a19.67,19.67,0,1,0,0,39.33h75.44a30,30,0,0,0,30-30v-.62h37.67a4.35,4.35,0,1,0,0-8.69H411.09a30,30,0,0,0-28.53-20.7L250.81,492.8c-.28,0-23-8.4-23-8.4Zm176,8.57c0,.21,0,.42,0,.62a21.34,21.34,0,0,1-21.32,21.32H307.12a11,11,0,0,1,0-21.94Z"/><rect class="cls-3" x="221.32" y="484.4" width="6.52" height="32.93" transform="translate(449.15 1001.73) rotate(-180)"/><path class="cls-5" d="M403.88,526.54c0-.2,0-.41,0-.62h8.7v.62a29.74,29.74,0,0,1-.78,6.78h-9A21.42,21.42,0,0,0,403.88,526.54Z"/><path class="cls-5" d="M397.26,511.12h11a29.43,29.43,0,0,1,2.8,6.11h-9.35A21.67,21.67,0,0,0,397.26,511.12Z"/><rect class="cls-3" x="446.51" y="517.23" width="12.13" height="8.69" transform="translate(905.16 1043.15) rotate(-180)"/><rect class="cls-3" x="455.54" y="515.36" width="6" height="13.04" transform="translate(917.08 1043.77) rotate(-180)"/><path class="cls-5" d="M314.92,552.11a15.24,15.24,0,0,1,15.22-15.22h32.62a15.22,15.22,0,0,1,0,30.43H330.14A15.23,15.23,0,0,1,314.92,552.11Zm15.22-9a9,9,0,1,0,0,18h32.62a9,9,0,0,0,0-18Z"/><rect class="cls-5" x="358.4" y="486.28" width="12.83" height="3.73"/><rect class="cls-5" x="404.49" y="37.89" width="103.91" height="97.03"/><line class="cls-10" x1="456.44" y1="37.89" x2="456.44" y2="134.92"/><line class="cls-10" x1="470.4" y1="37.89" x2="470.4" y2="134.92"/><line class="cls-10" x1="484.36" y1="37.89" x2="484.36" y2="134.92"/><line class="cls-10" x1="498.32" y1="37.89" x2="498.32" y2="134.92"/><line class="cls-10" x1="442.48" y1="37.89" x2="442.48" y2="134.92"/><line class="cls-10" x1="428.52" y1="37.89" x2="428.52" y2="134.92"/><line class="cls-10" x1="414.56" y1="37.89" x2="414.56" y2="134.92"/><rect class="cls-4" x="506.65" y="31.5" width="15.93" height="109.83"/><path class="cls-5" d="M522.58,37.89h15.28a3.34,3.34,0,0,1,3.34,3.34v90.34a3.34,3.34,0,0,1-3.34,3.34H522.58a0,0,0,0,1,0,0v-97A0,0,0,0,1,522.58,37.89Z"/><rect class="cls-4" x="369.94" y="31.5" width="34.55" height="109.83" transform="translate(774.42 172.82) rotate(-180)"/><rect class="cls-5" x="369.94" y="40.73" width="18.62" height="91.36" transform="translate(758.5 172.82) rotate(-180)"/><line class="cls-11" x1="522.58" y1="44.53" x2="541.2" y2="44.53"/><line class="cls-11" x1="522.58" y1="50.11" x2="541.2" y2="50.11"/><line class="cls-11" x1="522.58" y1="55.69" x2="541.2" y2="55.69"/><line class="cls-11" x1="522.58" y1="61.28" x2="541.2" y2="61.28"/><line class="cls-11" x1="522.58" y1="66.86" x2="541.2" y2="66.86"/><line class="cls-11" x1="522.58" y1="72.45" x2="541.2" y2="72.45"/><line class="cls-11" x1="522.58" y1="78.03" x2="541.2" y2="78.03"/><line class="cls-11" x1="522.58" y1="83.62" x2="541.2" y2="83.62"/><line class="cls-11" x1="522.58" y1="89.2" x2="541.2" y2="89.2"/><line class="cls-11" x1="522.58" y1="94.79" x2="541.2" y2="94.79"/><line class="cls-11" x1="522.58" y1="100.37" x2="541.2" y2="100.37"/><line class="cls-11" x1="522.58" y1="105.95" x2="541.2" y2="105.95"/><line class="cls-11" x1="522.58" y1="111.54" x2="541.2" y2="111.54"/><line class="cls-11" x1="522.58" y1="117.12" x2="541.2" y2="117.12"/><line class="cls-11" x1="522.58" y1="122.71" x2="541.2" y2="122.71"/><line class="cls-11" x1="522.58" y1="128.29" x2="541.2" y2="128.29"/><rect class="cls-4" x="522.58" y="42.75" width="9.81" height="3.49"/><rect class="cls-4" x="522.58" y="48.36" width="9.81" height="3.49"/><rect class="cls-4" x="522.58" y="59.52" width="9.81" height="3.49"/><rect class="cls-4" x="522.58" y="65.14" width="9.81" height="3.49"/><rect class="cls-4" x="522.58" y="70.7" width="9.81" height="3.49"/><rect class="cls-4" x="522.58" y="98.62" width="9.81" height="3.49"/><rect class="cls-4" x="522.58" y="104.23" width="9.81" height="3.49"/><rect class="cls-4" x="522.58" y="109.8" width="9.81" height="3.49"/><rect class="cls-4" x="522.58" y="120.95" width="9.81" height="3.49"/><rect class="cls-4" x="522.58" y="126.52" width="9.81" height="3.49"/><rect class="cls-4" x="522.58" y="81.88" width="9.81" height="3.49"/><rect class="cls-4" x="522.58" y="87.45" width="9.81" height="3.49"/><path class="cls-3" d="M384.79,48.34a2.22,2.22,0,1,1-2.22-2.22A2.21,2.21,0,0,1,384.79,48.34Z"/><circle class="cls-3" cx="382.57" cy="56.79" r="2.22"/><circle class="cls-3" cx="382.57" cy="65.24" r="2.22"/><path class="cls-3" d="M384.79,73.69a2.22,2.22,0,1,1-2.22-2.21A2.21,2.21,0,0,1,384.79,73.69Z"/><circle class="cls-3" cx="382.57" cy="82.15" r="2.22"/><circle class="cls-3" cx="382.57" cy="90.6" r="2.22"/><circle class="cls-3" cx="382.57" cy="99.05" r="2.22"/><path class="cls-3" d="M384.79,107.51a2.22,2.22,0,1,1-2.22-2.22A2.21,2.21,0,0,1,384.79,107.51Z"/><circle class="cls-3" cx="382.57" cy="115.96" r="2.22"/><path class="cls-3" d="M378,52.6a2.22,2.22,0,1,1-2.21-2.22A2.21,2.21,0,0,1,378,52.6Z"/><path class="cls-3" d="M378,61.05a2.22,2.22,0,1,1-2.21-2.22A2.22,2.22,0,0,1,378,61.05Z"/><path class="cls-3" d="M378,69.5a2.22,2.22,0,1,1-2.21-2.21A2.21,2.21,0,0,1,378,69.5Z"/><path class="cls-3" d="M378,78a2.22,2.22,0,1,1-2.21-2.22A2.21,2.21,0,0,1,378,78Z"/><path class="cls-3" d="M378,86.41a2.22,2.22,0,1,1-2.21-2.22A2.21,2.21,0,0,1,378,86.41Z"/><path class="cls-3" d="M378,94.86a2.22,2.22,0,1,1-2.21-2.21A2.21,2.21,0,0,1,378,94.86Z"/><path class="cls-3" d="M378,103.31a2.22,2.22,0,1,1-2.21-2.21A2.21,2.21,0,0,1,378,103.31Z"/><path class="cls-3" d="M378,111.77a2.22,2.22,0,1,1-2.21-2.22A2.21,2.21,0,0,1,378,111.77Z"/><path class="cls-3" d="M378,120.22a2.22,2.22,0,1,1-2.21-2.22A2.22,2.22,0,0,1,378,120.22Z"/><polygon class="cls-3" points="419.87 134.91 416.39 134.91 416.39 37.88 419.87 134.91"/><polygon class="cls-3" points="433.82 134.92 430.34 134.92 430.34 37.89 433.82 134.92"/><polygon class="cls-3" points="447.73 134.92 444.25 134.92 444.25 37.89 447.73 134.92"/><polygon class="cls-3" points="461.76 134.92 458.28 134.92 458.28 37.89 461.76 134.92"/><polygon class="cls-3" points="475.67 134.92 472.19 134.92 472.19 37.89 475.67 134.92"/><polygon class="cls-3" points="489.58 134.92 486.1 134.92 486.1 37.89 489.58 134.92"/><polygon class="cls-3" points="503.64 134.92 500.16 134.92 500.16 37.89 503.64 134.92"/><polygon class="cls-3" points="407.96 134.92 404.49 134.92 404.49 37.89 407.96 134.92"/><polygon class="cls-3" points="493.1 37.89 496.57 37.89 496.57 134.92 493.1 37.89"/><polygon class="cls-3" points="479.03 37.89 482.51 37.89 482.51 134.92 479.03 37.89"/><polygon class="cls-3" points="465.07 37.89 468.55 37.89 468.55 134.92 465.07 37.89"/><polygon class="cls-3" points="451.12 37.9 454.6 37.9 454.6 134.93 451.12 37.9"/><polygon class="cls-3" points="437.15 37.89 440.63 37.89 440.63 134.92 437.15 37.89"/><polygon class="cls-3" points="423.21 37.89 426.69 37.89 426.69 134.92 423.21 37.89"/><polygon class="cls-3" points="409.24 37.89 412.71 37.89 412.71 134.92 409.24 37.89"/><polygon class="cls-3" points="503.17 37.89 506.65 37.89 506.65 134.92 503.17 37.89"/><path class="cls-7" d="M466.51,333.74v65.07c0,16,10,28.9,22.36,28.9h0c12.35,0,22.36-12.94,22.36-28.9V333.74c0-16-10-28.89-22.36-28.89h0C476.52,304.85,466.51,317.78,466.51,333.74Zm22.36-19.09c9.51,0,17.22,10,17.22,22.25v58.75c0,12.29-7.71,22.26-17.22,22.26h0c-9.51,0-17.22-10-17.22-22.26V336.9c0-12.29,7.71-22.25,17.22-22.25Z"/><rect class="cls-7" x="431.79" y="378.5" width="3.39" height="5.34" transform="translate(52.32 814.66) rotate(-90)"/><path class="cls-4" d="M489,251.66H409.79c36.2,49.94,33.39,194.55,33.39,194.55h12.4S452.78,301.6,489,251.66Z"/><rect class="cls-7" x="431.79" y="365.18" width="3.39" height="5.34" transform="translate(65.63 801.33) rotate(-90)"/><rect class="cls-5" x="465.92" y="345.38" width="12.07" height="71.58" transform="translate(90.78 853.12) rotate(-90)"/><rect class="cls-7" x="431.79" y="351.35" width="3.39" height="5.34" transform="translate(79.47 787.51) rotate(-90)"/><rect class="cls-5" x="465.92" y="332.06" width="12.07" height="71.58" transform="translate(104.1 839.8) rotate(-90)"/><rect class="cls-5" x="465.92" y="318.23" width="12.07" height="71.58" transform="translate(117.93 825.97) rotate(-90)"/><path class="cls-5" d="M459.79,447.54h0a3.67,3.67,0,0,1-3.68,3.67H442.6a3.67,3.67,0,0,1-3.68-3.67h0a3.68,3.68,0,0,1,3.68-3.68h13.51A3.68,3.68,0,0,1,459.79,447.54Z"/><path class="cls-3" d="M445.6,329.33v73.89A32.81,32.81,0,0,0,478.42,436h0a32.81,32.81,0,0,0,32.81-32.81V329.33a32.81,32.81,0,0,0-32.81-32.81h0A32.81,32.81,0,0,0,445.6,329.33Zm32.82-21.68a25.27,25.27,0,0,1,25.27,25.27v66.71a25.27,25.27,0,0,1-25.27,25.28h0a25.28,25.28,0,0,1-25.28-25.28V332.92a25.27,25.27,0,0,1,25.28-25.27Z"/><path class="cls-3" d="M431.89,376.52v9.3a1.38,1.38,0,0,1-1.39,1.38h0a1.38,1.38,0,0,1-1.38-1.38v-9.3a1.38,1.38,0,0,1,1.38-1.38h0A1.38,1.38,0,0,1,431.89,376.52Z"/><path class="cls-3" d="M431.89,363.2v9.3a1.38,1.38,0,0,1-1.39,1.38h0a1.38,1.38,0,0,1-1.38-1.38v-9.3a1.38,1.38,0,0,1,1.38-1.39h0A1.39,1.39,0,0,1,431.89,363.2Z"/><path class="cls-3" d="M431.89,349.37v9.3a1.38,1.38,0,0,1-1.39,1.38h0a1.38,1.38,0,0,1-1.38-1.38v-9.3A1.38,1.38,0,0,1,430.5,348h0A1.38,1.38,0,0,1,431.89,349.37Z"/><line class="cls-12" x1="350.59" y1="959.66" x2="386.59" y2="959.66"/><line class="cls-13" x1="350.96" y1="978.53" x2="382.28" y2="985.28"/><line class="cls-13" x1="351.52" y1="941.79" x2="382.84" y2="935.04"/><path class="cls-4" d="M572.25,426.94l-4.59-1.14-4.59-1.14s-24.77,68.24-23.31,74.13c0,.16.08.33.13.48a10.77,10.77,0,0,0,17.89,4.45l.34-.36C562.17,498.84,572.25,426.94,572.25,426.94Z"/><ellipse class="cls-5" cx="573.11" cy="403.92" rx="38" ry="30.59" transform="translate(42.78 862.57) rotate(-76.03)"/><path class="cls-5" d="M584.82,437.71a27.73,27.73,0,0,1-21,3.57c-16.63-4.14-26-24.27-20.87-44.87,2.82-11.34,9.55-20.93,18.46-26.29a27.69,27.69,0,0,1,21-3.56c16.64,4.14,26,24.26,20.88,44.86C600.45,422.77,593.72,432.36,584.82,437.71ZM561.92,371c-8.69,5.23-15.25,14.59-18,25.68-5,20.06,4.05,39.64,20.15,43.64,6.71,1.68,13.71.48,20.24-3.45,8.68-5.22,15.24-14.58,18-25.67,5-20.06-4-39.64-20.14-43.65C575.45,365.86,568.45,367.06,561.92,371Z"/><path class="cls-3" d="M544.5,393.94l58.56,14.56q.35-1.86.54-3.72l-57.84-14.39C545.3,391.54,544.88,392.73,544.5,393.94Z"/><path class="cls-3" d="M600.46,417.42c.46-1.15.89-2.33,1.26-3.54l-58.56-14.57q-.35,1.88-.54,3.72Z"/><path class="cls-4" d="M450.87,191.86l.07,4.89.06,4.9s74.83,6.88,80.35,3.88l.45-.26a11.15,11.15,0,0,0-.25-19.08l-.45-.24C525.51,183.08,450.87,191.86,450.87,191.86Z"/><ellipse class="cls-5" cx="427.6" cy="197.05" rx="39.33" ry="31.66" transform="translate(-2.46 5.44) rotate(-0.73)"/><path class="cls-3" d="M425.12,228.32l-.79-62.46c-1.31.09-2.61.24-3.87.43l.78,61.69C422.51,228.14,423.81,228.26,425.12,228.32Z"/><path class="cls-3" d="M433.93,166.12c-1.27-.17-2.56-.28-3.87-.34l.79,62.47c1.31-.1,2.6-.24,3.87-.44Z"/><rect class="cls-4" x="91.05" y="229.01" width="179.34" height="13.28" transform="translate(-54.93 416.37) rotate(-90)"/><rect class="cls-4" x="129.25" y="229.01" width="179.34" height="13.28" transform="translate(-16.73 454.57) rotate(-90)"/><rect class="cls-3" x="188.83" y="244.21" width="24.4" height="122.88" transform="translate(-104.62 506.68) rotate(-90)"/><rect class="cls-3" x="188.83" y="215.99" width="24.4" height="108.86" transform="translate(-69.39 471.45) rotate(-90)"/><rect class="cls-3" x="188.83" y="186.99" width="24.4" height="96.41" transform="translate(-34.16 436.22) rotate(-90)"/><rect class="cls-3" x="188.83" y="159.65" width="24.4" height="80.63" transform="translate(1.06 400.99) rotate(-90)"/><rect class="cls-3" x="188.83" y="132.73" width="24.4" height="64.02" transform="translate(36.29 365.77) rotate(-90)"/><path class="cls-4" d="M152.45,299.5a5.86,5.86,0,1,1-5.85,5.85A5.85,5.85,0,0,1,152.45,299.5Z"/><path class="cls-4" d="M247.11,299.5a5.86,5.86,0,1,1-5.86,5.85A5.85,5.85,0,0,1,247.11,299.5Z"/><path class="cls-4" d="M158.68,264.57a5.85,5.85,0,1,1-5.85,5.85A5.85,5.85,0,0,1,158.68,264.57Z"/><path class="cls-4" d="M243.37,264.57a5.85,5.85,0,1,1-5.85,5.85A5.85,5.85,0,0,1,243.37,264.57Z"/><path class="cls-6" d="M63.31,573.84a6.67,6.67,0,0,1,1.18-5.92l.09-.12c.51-.64,1-1.22,14.19-9.47a60.79,60.79,0,0,1-10-16.22,8,8,0,0,1-4-14.13,61.48,61.48,0,0,1,.55-22.22c-5.84-.18-6.33-.36-6.92-.58l-.11-.05a6.61,6.61,0,0,1-4.06-4.46,6.75,6.75,0,0,1,4.51-8.33l.1,0c.67-.2,1.21-.36,8.65,0a7.93,7.93,0,0,1,.75-6,8,8,0,0,1,7.53-4,60.94,60.94,0,0,1,26.47-20.76,8,8,0,0,1,13.91-3.85,60.78,60.78,0,0,1,33.32,4.15,8,8,0,0,1,12.36,4.36,8.13,8.13,0,0,1,.26,2.85,60.79,60.79,0,0,1,20.38,26.28,8,8,0,0,1,3.88,14.23,61,61,0,0,1-4.11,32.63,8,8,0,0,1,.77,9,8,8,0,0,1-8.17,4,60.9,60.9,0,0,1-25.74,20.09,8,8,0,0,1-14.43,4,60.74,60.74,0,0,1-32.47-3.9,8,8,0,0,1-13-7.27l-.51-.38c-15.49,10.56-16.29,10.77-17.13,11l-.12,0A6.76,6.76,0,0,1,63.31,573.84Z"/><circle class="cls-3" cx="181.46" cy="503.17" r="4.38" transform="translate(-19.15 7.32) rotate(-2.2)"/><circle class="cls-3" cx="69.85" cy="534.18" r="4.38" transform="translate(-20.42 3.07) rotate(-2.2)"/><circle class="cls-3" cx="141.16" cy="574.48" r="4.38" transform="matrix(1, -0.04, 0.04, 1, -21.91, 5.83)"/><path class="cls-3" d="M105.93,464.05a4.39,4.39,0,1,1,5.4,3.05A4.38,4.38,0,0,1,105.93,464.05Z"/><path class="cls-3" d="M173.92,551a4.39,4.39,0,1,1,6-1.66A4.39,4.39,0,0,1,173.92,551Z"/><path class="cls-3" d="M73.08,494a4.39,4.39,0,1,1,6-1.66A4.39,4.39,0,0,1,73.08,494Z"/><path class="cls-3" d="M158,470.41a4.39,4.39,0,1,1-1.66-6A4.39,4.39,0,0,1,158,470.41Z"/><path class="cls-3" d="M101,571.25a4.39,4.39,0,1,1-1.66-6A4.39,4.39,0,0,1,101,571.25Z"/><circle class="cls-5" cx="125.53" cy="518.38" r="57.88" transform="translate(-134.19 52.53) rotate(-15.53)"/><path class="cls-5" d="M69.27,534a58.39,58.39,0,1,1,71.89,40.63A58.46,58.46,0,0,1,69.27,534ZM180.8,503a57.36,57.36,0,1,0-39.91,70.62A57.43,57.43,0,0,0,180.8,503Z"/><circle class="cls-4" cx="125.53" cy="518.38" r="53.57" transform="translate(-53.5 15.96) rotate(-6)"/><path class="cls-4" d="M73.42,532.86A54.09,54.09,0,1,1,140,570.49,54.15,54.15,0,0,1,73.42,532.86Zm103.23-28.69a53.06,53.06,0,1,0-36.91,65.33A53.11,53.11,0,0,0,176.65,504.17Z"/><rect class="cls-7" x="163.27" y="504.04" width="15.52" height="3.4" transform="translate(612.52 205.56) rotate(74.47)"/><path class="cls-3" d="M151.52,505.17c3.09.1,5.63-1.23,5.69-3s-2.38-3.25-5.46-3.36c-2.45-.09-4.56.74-5.35,2-9.39-.65-84.08-5.73-86.49-5l-.08,0a3.17,3.17,0,0,0-.21,6l.07,0c2.37.88,77.22,1,86.64,1C147,504.11,149.08,505.08,151.52,505.17Z"/><path class="cls-3" d="M57.24,499.84h0a3.67,3.67,0,0,1,2.44-4.54l.08,0c2.44-.72,71.71,4,86.39,5,1-1.27,3.18-2,5.61-1.94,3,.11,5.39,1.41,5.88,3.18a2.23,2.23,0,0,1,.09.72c-.07,2.07-2.81,3.59-6.22,3.47-2.44-.08-4.54-1-5.47-2.33-20.1,0-84.2-.21-86.53-1.07l0,0A3.62,3.62,0,0,1,57.24,499.84Zm99.41,1.92c-.36-1.29-2.48-2.33-4.92-2.42-2.17-.07-4.19.64-4.9,1.73l-.16.25-.31,0c-31-2.12-84.15-5.58-86.31-5l-.07,0a2.66,2.66,0,0,0-1.75,3.28h0a2.53,2.53,0,0,0,1.57,1.71l.07,0c2.12.69,55.34,1,86.46,1h.3l.15.27c.63,1.14,2.59,2,4.76,2.06,2.75.1,5.11-1,5.16-2.48A1.48,1.48,0,0,0,156.65,501.76Z"/><path class="cls-3" d="M144.32,519.81c2.58-1.68,5.45-1.85,6.41-.39s-.37,4-2.95,5.7c-2.05,1.34-4.28,1.72-5.59,1.09-7.72,5.39-69.07,48.28-71.51,48.91l-.08,0a3.17,3.17,0,0,1-3.26-5l0-.07c1.57-2,65.62-40.71,73.68-45.58C141,523,142.27,521.15,144.32,519.81Z"/><path class="cls-3" d="M66.29,573a3.63,3.63,0,0,1,.64-3.19l.06-.07c1.58-2,61-38,73.57-45.56.1-1.62,1.43-3.48,3.48-4.81a8.65,8.65,0,0,1,4.06-1.46,3.24,3.24,0,0,1,3.06,1.22,2.54,2.54,0,0,1,.3.67c.49,1.76-.91,4.13-3.4,5.75-2.05,1.33-4.28,1.79-5.81,1.23-12.06,8.43-69,48.19-71.44,48.83l-.09,0A3.68,3.68,0,0,1,66.29,573Zm84.17-52.93a1.43,1.43,0,0,0-.17-.38,2.26,2.26,0,0,0-2.13-.75,7.7,7.7,0,0,0-3.56,1.29c-1.82,1.19-3.06,2.93-3,4.23v.3l-.26.16C114.71,541,69.25,568.71,67.79,570.4l0,.05a2.54,2.54,0,0,0-.46,2.28,2.64,2.64,0,0,0,3.18,1.91l.07,0c2.14-.65,45.85-31,71.35-48.84l.25-.17.27.13c1.17.57,3.26.14,5.09-1C149.55,523.36,150.82,521.38,150.46,520.08Z"/><path class="cls-14" d="M251.15,341.46s-148.06,1.36-163.06,1.36V299.46l38,0c0-9.12-2-138.66-2-138.66s-39,0-53-1l.58-68.58,3.17-.17"/><circle class="cls-3" cx="87.74" cy="90.98" r="0.78"/><polygon class="cls-3" points="86.81 91.62 85.45 91.62 85.45 91.97 82.12 91.96 82.12 89.99 85.45 89.99 85.45 90.34 86.81 90.35 86.81 89.99 87.39 90 87.39 91.97 86.8 91.97 86.81 91.62"/><polygon class="cls-3" points="75.27 92.61 75.27 92.23 76.57 92.23 76.57 92.61 84.08 92.62 84.09 89.33 76.58 89.33 76.58 89.68 75.27 89.68 75.27 89.32 73.89 89.32 73.89 92.61 75.27 92.61"/><polygon class="cls-3" points="84.48 91.97 84.09 89.99 84.08 91.97 84.48 91.97"/><rect class="cls-3" x="74.65" y="90.3" width="2.55" height="1.31" transform="matrix(0, 1, -1, 0, 166.96, 15.14)"/><path class="cls-5" d="M254,330h9.22a0,0,0,0,1,0,0v18.42a3.28,3.28,0,0,1-3.28,3.28h-2.66a3.28,3.28,0,0,1-3.28-3.28V330a0,0,0,0,1,0,0Z" transform="translate(599.81 82.59) rotate(90.07)"/><path class="cls-4" d="M364.18,341l0-16.76-95.54,6a10.68,10.68,0,0,0-10,10.64h0a10.66,10.66,0,0,0,10,10.65l95.53,6.23Z"/><path class="cls-4" d="M261.43,348.75h0a11.15,11.15,0,0,1,7.2-19l96.06-6,0,34.55-.52,0L268.6,352A11.19,11.19,0,0,1,261.43,348.75Zm102.28-24-95,6a10.18,10.18,0,0,0-9.54,10.15,10.07,10.07,0,0,0,3,7.2h0a10.18,10.18,0,0,0,6.55,3l95,6.19Z"/><circle class="cls-3" cx="387.32" cy="341" r="25.32" transform="translate(-127.68 373.75) rotate(-45)"/><path class="cls-4" d="M384.85,366.2c.8.08,1.62.12,2.44.12a26.34,26.34,0,0,0,3.46-.23l3.5-3.49,2.06,2.07a23.74,23.74,0,0,0,2.31-1l-2.71-2.72,5.06-5,3.61,3.62c.58-.54,1.12-1.1,1.65-1.68l-3.6-3.6,5.44-5.43,2.42,2.42c.34-.79.65-1.59.91-2.41l-1.66-1.67,2.66-2.66a28,28,0,0,0,.24-3.46,24.72,24.72,0,0,0-.24-3.46l-3-3,1.86-1.86a24.28,24.28,0,0,0-1-2.36l-2.56,2.55-5-5.05,3.6-3.6c-.52-.58-1.06-1.15-1.64-1.68L401,326.14l-5.43-5.44,2.59-2.58a24.17,24.17,0,0,0-2.35-1l-1.9,1.89-3.1-3.11a24.72,24.72,0,0,0-3.46-.24c-.83,0-1.64,0-2.44.11L381.68,319l-2.12-2.12a24.88,24.88,0,0,0-2.41.91l2.86,2.88-5.44,5.42-4-4.05c-.59.52-1.15,1.07-1.69,1.64l4.07,4.07-5.06,5.05-3.16-3.17a23.63,23.63,0,0,0-1,2.3l2.52,2.53-4.07,4.06c-.08.8-.12,1.61-.12,2.44s0,1.63.12,2.43l3.67,3.69-2.35,2.34c.29.8.61,1.59,1,2.35l3-3,5.43,5.44-4.08,4.07c.54.57,1.1,1.12,1.68,1.64l4.06-4,5,5.05-3,3c.77.36,1.55.68,2.36,1l2.32-2.31Zm9.4-6.92-4.83-4.85,5.05-5,4.84,4.84Zm-6.48-19.94-5.43-5.44,5.44-5.43,5.43,5.44Zm7.1-3.76,5.05,5.05-5.44,5.43L389.43,341ZM386.11,341l-5.06,5.05-5.43-5.44,5.06-5.05Zm1.66,1.67,5,5.05-5.05,5-5.05-5.06Zm13.2,9.9-4.83-4.84,5.44-5.43,4.83,4.84ZM412.53,341l-4.45,4.45-4.84-4.84,4.46-4.45Zm-6.49-6.5L401.58,339l-5-5.05,4.46-4.45Zm-6.7-6.73-4.46,4.45-5.43-5.44,4.46-4.45ZM387.8,316.24l4.45,4.46-4.46,4.45-4.45-4.46Zm-6.13,6.11,4.45,4.46-5.44,5.43-4.45-4.46Zm-7.1,7.09L379,333.9l-5.06,5-4.45-4.46ZM363,341l4.84-4.84,4.45,4.46-4.85,4.84Zm6.11,6.12,4.84-4.83,5.43,5.44-4.85,4.83Zm7.08,7.1,4.85-4.83,5,5.06-4.84,4.83Zm11.55,1.89,4.84,4.85-4.85,4.83-4.83-4.84Z"/><rect class="cls-5" x="345.5" y="334.92" width="37.37" height="12.12" transform="translate(705.58 -22.81) rotate(90.07)"/><path class="cls-5" d="M357.62,360.14l0-38.34h13.09l-.05,38.35Zm1-37.37,0,36.4h11.14l0-36.4Z"/><path class="cls-4" d="M75.44,175.15A5.85,5.85,0,1,1,69.59,181,5.85,5.85,0,0,1,75.44,175.15Z"/><path class="cls-4" d="M75.44,196.15A5.85,5.85,0,1,1,69.59,202,5.85,5.85,0,0,1,75.44,196.15Z"/><path class="cls-4" d="M75.44,218.15A5.85,5.85,0,1,1,69.59,224,5.85,5.85,0,0,1,75.44,218.15Z"/><rect class="cls-3" x="370.49" y="422.62" width="12.05" height="2.13" transform="translate(-47.18 800.2) rotate(-90)"/><path class="cls-5" d="M369.09,427.2h0a2.51,2.51,0,0,0,2.51,2.51h9.83a2.51,2.51,0,0,0,2.51-2.51h0a2.51,2.51,0,0,0-2.51-2.51H371.6A2.51,2.51,0,0,0,369.09,427.2Z"/><path class="cls-5" d="M369.25,429.55a3.33,3.33,0,0,1,2.35-5.68h9.83a3.33,3.33,0,1,1,0,6.65H371.6A3.29,3.29,0,0,1,369.25,429.55ZM382.63,426a1.7,1.7,0,0,0-1.2-.5H371.6a1.71,1.71,0,0,0-1.7,1.7,1.74,1.74,0,0,0,1.7,1.7h9.83a1.7,1.7,0,0,0,1.2-2.9Z"/><rect class="cls-3" x="388.16" y="422.62" width="12.05" height="2.13" transform="translate(-29.5 817.88) rotate(-90)"/><path class="cls-5" d="M386.76,427.2h0a2.51,2.51,0,0,0,2.51,2.51h9.83a2.51,2.51,0,0,0,2.51-2.51h0a2.51,2.51,0,0,0-2.51-2.51h-9.83A2.51,2.51,0,0,0,386.76,427.2Z"/><path class="cls-5" d="M386.92,429.55a3.29,3.29,0,0,1-1-2.35,3.33,3.33,0,0,1,3.32-3.33h9.83a3.33,3.33,0,0,1,0,6.65h-9.83A3.29,3.29,0,0,1,386.92,429.55ZM400.3,426a1.7,1.7,0,0,0-1.2-.5h-9.83a1.7,1.7,0,0,0-1.7,1.7,1.74,1.74,0,0,0,1.7,1.7h9.83a1.7,1.7,0,0,0,1.2-2.9Z"/><rect class="cls-3" x="385.75" y="398.92" width="11.96" height="2.13" transform="translate(791.71 8.26) rotate(90)"/><path class="cls-5" d="M384.31,396.5h0A2.48,2.48,0,0,1,386.8,394h9.86a2.49,2.49,0,0,1,2.49,2.49h0a2.5,2.5,0,0,1-2.49,2.5H386.8A2.49,2.49,0,0,1,384.31,396.5Z"/><path class="cls-5" d="M384.46,398.84a3.31,3.31,0,0,1,2.34-5.65h9.86a3.31,3.31,0,0,1,0,6.62H386.8A3.28,3.28,0,0,1,384.46,398.84Zm13.38-3.53a1.68,1.68,0,0,0-1.18-.49H386.8a1.68,1.68,0,0,0-1.68,1.68,1.72,1.72,0,0,0,1.68,1.68h9.86a1.68,1.68,0,0,0,1.18-2.87Z"/><rect class="cls-3" x="403.41" y="398.92" width="11.96" height="2.13" transform="translate(809.37 -9.41) rotate(90)"/><path class="cls-3" d="M416.81,411.82V401.54H372.14a3.12,3.12,0,0,0-3.12,3.12V419a3.12,3.12,0,0,0,3.12,3.12h44.67Z"/><path class="cls-3" d="M369.36,421.75a3.91,3.91,0,0,1-1.15-2.78V404.66a3.93,3.93,0,0,1,3.93-3.93h45.48V422.9H372.14A3.91,3.91,0,0,1,369.36,421.75ZM416,402.36H372.14a2.3,2.3,0,0,0-2.31,2.3V419a2.37,2.37,0,0,0,2.31,2.31H416Z"/><path class="cls-4" d="M224.17,456c0-10.56,10.6-19.12,23.69-19.12,12.27,0,22.36,7.53,23.57,17.18a31.29,31.29,0,0,0,5.23.44c20.17,0,36.52-19.06,36.52-42.58s-16.35-42.59-36.52-42.59a31.67,31.67,0,0,0-5.27.45c-1.34,9.53-11.36,16.94-23.53,16.94-13.09,0-23.69-8.56-23.69-19.12a15.64,15.64,0,0,1,.76-4.83,40.45,40.45,0,0,0-18.61-4.57c-25.43,0-46.06,24.05-46.06,53.72s20.63,53.72,46.06,53.72A40.4,40.4,0,0,0,225,461,15.7,15.7,0,0,1,224.17,456Z"/><rect class="cls-5" x="286.05" y="338.71" width="13.57" height="146.22" transform="translate(704.65 118.99) rotate(90)"/><path class="cls-5" d="M218.91,419.41V404.22H366.75v15.19Zm1.62-13.56v11.94H365.12V405.85Z"/><rect class="cls-5" x="360.7" y="410.28" width="13.57" height="3.08" transform="translate(779.3 44.34) rotate(90)"/><path class="cls-5" d="M365.12,419.41V404.22h4.71v15.19Zm1.63-13.56v11.94h1.46V405.85Z"/><rect class="cls-5" x="383.05" y="401.76" width="1.87" height="29.94" transform="translate(800.73 32.76) rotate(90)"/><rect class="cls-5" x="383.06" y="391.94" width="1.87" height="29.93" transform="translate(790.91 22.92) rotate(90)"/><path class="cls-3" d="M416.81,411.82V401.54H403.19a10.27,10.27,0,0,0-10.27,10.28h0a10.27,10.27,0,0,0,10.27,10.27h13.62Z"/><path class="cls-5" d="M402,396.5h0a2.48,2.48,0,0,1,2.49-2.49h9.86a2.49,2.49,0,0,1,2.49,2.49h0a2.5,2.5,0,0,1-2.49,2.5h-9.86A2.49,2.49,0,0,1,402,396.5Z"/><path class="cls-5" d="M402.12,398.84a3.31,3.31,0,0,1,2.34-5.65h9.86a3.31,3.31,0,0,1,0,6.62h-9.86A3.28,3.28,0,0,1,402.12,398.84Zm13.39-3.53a1.71,1.71,0,0,0-1.19-.49h-9.86a1.68,1.68,0,0,0-1.68,1.68,1.72,1.72,0,0,0,1.68,1.68h9.86A1.68,1.68,0,0,0,416,396.5,1.71,1.71,0,0,0,415.51,395.31Z"/><path class="cls-3" d="M238.73,400.38a3.56,3.56,0,1,0-3.36-4,27.31,27.31,0,0,1-9-6,25,25,0,0,1-5.22-8.26,8.48,8.48,0,0,1-5.69,1.45c-3.41-.33-10.61-2-14.81,1.14h0a11.87,11.87,0,0,0-2.32,1.9h0a3.64,3.64,0,0,0-1,2.51,3.39,3.39,0,1,0,6.78,0,3.64,3.64,0,0,0-1.23-2.75,13.54,13.54,0,0,1,5.73-.56c4.26.5,6.56,1.25,8.47,3s2.08,6.06,2.08,6.06a6.16,6.16,0,0,1,6.54.16c3.68,2.18,8.86,5.36,12.84,5.42h.2Z"/><path class="cls-3" d="M238.73,423.26a3.56,3.56,0,1,1-3.36,4,27.47,27.47,0,0,0-9,6,25.1,25.1,0,0,0-5.22,8.26,8.55,8.55,0,0,0-5.69-1.45c-3.41.34-10.61,2-14.81-1.13h0a12.31,12.31,0,0,1-2.32-1.91h0a3.62,3.62,0,0,1-1-2.5,3.39,3.39,0,1,1,6.78,0,3.62,3.62,0,0,1-1.23,2.74,13.51,13.51,0,0,0,5.73.57c4.26-.51,6.56-1.25,8.47-3s2.08-6.06,2.08-6.06a6.14,6.14,0,0,0,6.54-.16c3.68-2.18,8.86-5.35,12.84-5.41h.2Z"/><rect class="cls-4" x="97.07" y="392.44" width="7.91" height="40.83"/><path class="cls-3" d="M104.67,431.25c1.47,3.55-1.86,8.31-7.45,10.61s-11.3,1.29-12.77-2.27,1.87-8.3,7.45-10.61S103.21,427.69,104.67,431.25Z"/><rect class="cls-4" x="126.59" y="384.22" width="7.91" height="40.83"/><path class="cls-3" d="M134.15,423c1.47,3.56-1.87,8.31-7.45,10.61s-11.3,1.29-12.77-2.26,1.87-8.31,7.45-10.62S132.68,419.47,134.15,423Z"/><polygon class="cls-5" points="134.45 376.12 97.02 384.02 97.02 397.95 134.45 390.06 134.45 376.12"/><path class="cls-4" d="M291.16,1023.07a5.86,5.86,0,1,1,5.86,5.86A5.85,5.85,0,0,1,291.16,1023.07Z"/><path class="cls-4" d="M312.16,1023.07a5.86,5.86,0,1,1,5.86,5.86A5.85,5.85,0,0,1,312.16,1023.07Z"/><path class="cls-4" d="M334.16,1023.07a5.86,5.86,0,1,1,5.86,5.86A5.85,5.85,0,0,1,334.16,1023.07Z"/><path class="cls-4" d="M355.16,1023.07a5.86,5.86,0,1,1,5.86,5.86A5.85,5.85,0,0,1,355.16,1023.07Z"/><path class="cls-4" d="M376.16,1023.07a5.86,5.86,0,1,1,5.86,5.86A5.85,5.85,0,0,1,376.16,1023.07Z"/><path class="cls-4" d="M398.16,1023.07a5.86,5.86,0,1,1,5.86,5.86A5.85,5.85,0,0,1,398.16,1023.07Z"/></g></svg>