<svg xmlns="http://www.w3.org/2000/svg" viewBox="0 0 737 1114"><defs><style>.cls-1{fill:#e20613;}.cls-12,.cls-13,.cls-14,.cls-2{fill:none;stroke:#800e13;}.cls-10,.cls-11,.cls-14,.cls-2,.cls-8,.cls-9{stroke-miterlimit:10;}.cls-2{stroke-width:3px;}.cls-3{fill:#640d14;}.cls-4{fill:#ad2831;}.cls-5{fill:#800e13;}.cls-6{fill:#250902;}.cls-7{fill:#38040e;}.cls-10,.cls-11,.cls-8,.cls-9{fill:#5046af;stroke:#250902;}.cls-10,.cls-12,.cls-13,.cls-8{stroke-linecap:round;}.cls-8{stroke-width:4.56px;}.cls-9{stroke-width:1.73px;}.cls-10{stroke-width:3.68px;}.cls-11{stroke-width:1.4px;}.cls-12,.cls-13{stroke-linejoin:round;}.cls-12{stroke-width:2.25px;}.cls-13{stroke-width:2.1px;}.cls-14{stroke-width:2.74px;}</style></defs><title>ISA</title><g id="Capa_3" data-name="Capa 3"><rect class="cls-1" width="737" height="1114"/></g><g id="Capa_2" data-name="Capa 2"><path class="cls-2" d="M446,766s2,12-7.72,12.49H400V755H345s-2-78,0-97.23H319.92" transform="translate(16 14)"/><circle class="cls-3" cx="318.05" cy="671.77" r="0.99"/><polygon class="cls-3" points="319.23 670.97 320.94 670.97 320.94 670.52 325.15 670.52 325.15 673.02 320.94 673.02 320.94 672.57 319.23 672.57 319.23 673.02 318.5 673.02 318.5 670.52 319.23 670.52 319.23 670.97"/><polygon class="cls-3" points="333.82 669.69 333.82 670.18 332.17 670.18 332.17 669.69 322.67 669.69 322.67 673.85 332.17 673.85 332.17 673.4 333.82 673.4 333.82 673.85 335.56 673.85 335.56 669.69 333.82 669.69"/><polygon class="cls-3" points="322.17 670.52 322.67 673.02 322.67 670.52 322.17 670.52"/><rect class="cls-3" x="315.38" y="656.97" width="3.22" height="1.65" transform="translate(-324.8 988.79) rotate(-90)"/><path class="cls-4" d="M626.1,302.57c-8.85-10.42-11.58-25.73-7-39.21a31.78,31.78,0,0,0,1.71-10.29c0-19.46-17.65-35.24-39.43-35.24S542,233.61,542,253.07a31.51,31.51,0,0,0,1.71,10.29c4.6,13.49,1.88,28.79-7,39.21a46.54,46.54,0,0,0-11.4,30.3c0,27.68,25.11,50.13,56.09,50.13s56.1-22.45,56.1-50.13A46.54,46.54,0,0,0,626.1,302.57Z" transform="translate(16 14)"/><circle class="cls-5" cx="581.43" cy="277.92" r="23.1" transform="matrix(0.16, -0.99, 0.99, 0.16, 229.48, 820.99)"/><circle class="cls-3" cx="597.4" cy="287.62" r="23.1"/><path class="cls-5" d="M581.4,256.18A17.44,17.44,0,1,1,564,273.62a17.46,17.46,0,0,1,17.44-17.44m0-5.66a23.1,23.1,0,1,0,23.1,23.1,23.1,23.1,0,0,0-23.1-23.1Z" transform="translate(16 14)"/><path class="cls-3" d="M604.5,335.2a6.87,6.87,0,0,1-6.87,6.88H565.18a6.87,6.87,0,0,1-6.87-6.88h0a6.86,6.86,0,0,1,6.87-6.87h32.45a6.86,6.86,0,0,1,6.87,6.87Z" transform="translate(16 14)"/><polygon class="cls-4" points="605.38 119.59 589.43 119.59 586.01 287.62 608.8 287.62 605.38 119.59"/><polygon class="cls-5" points="606.15 154.59 605.45 119.65 589.5 119.64 588.78 154.59 606.15 154.59"/><rect class="cls-3" x="586.01" y="105" width="22.79" height="40.59"/><rect class="cls-5" x="580.08" y="112.78" width="34.65" height="4.24"/><rect class="cls-5" x="580.08" y="123.39" width="34.65" height="4.24"/><rect class="cls-5" x="580.08" y="134" width="34.65" height="4.24"/><path class="cls-3" d="M568.06,100.9a3.77,3.77,0,1,1-3.77-3.77A3.77,3.77,0,0,1,568.06,100.9Z" transform="translate(16 14)"/><circle class="cls-3" cx="580.08" cy="125.51" r="3.77"/><circle class="cls-3" cx="580.08" cy="136.12" r="3.77"/><circle class="cls-3" cx="614.84" cy="114.9" r="3.77"/><circle class="cls-3" cx="614.63" cy="125.51" r="3.77"/><circle class="cls-3" cx="614.63" cy="136.12" r="3.77"/><rect class="cls-5" x="596.7" y="150.62" width="1.41" height="137"/><rect class="cls-5" x="584.23" y="136.61" width="1.41" height="137.01" transform="translate(13.91 20.05) rotate(-0.59)"/><rect class="cls-5" x="587.77" y="136.6" width="1.41" height="137.03" transform="translate(11.89 26.19) rotate(-1.18)"/><rect class="cls-5" x="509.36" y="204.41" width="137.01" height="1.41" transform="translate(382.78 794.83) rotate(-89.41)"/><rect class="cls-5" x="505.82" y="204.41" width="137.03" height="1.41" transform="translate(373.36 789.08) rotate(-88.81)"/><rect class="cls-5" x="186.11" y="984.59" width="10.67" height="78.5"/><rect class="cls-5" x="183.57" y="982.3" width="15.75" height="4.57"/><rect class="cls-5" x="208.98" y="984.59" width="10.67" height="78.5"/><rect class="cls-5" x="206.44" y="982.3" width="15.75" height="4.57"/><rect class="cls-5" x="163.25" y="984.59" width="10.67" height="78.5"/><path class="cls-4" d="M320.71,966s-27.86,10.31-28.21,10.31l-161.69,4.57a36.9,36.9,0,0,0-35,25.41h-48a5.34,5.34,0,1,0,0,10.67H94c0,.25,0,.5,0,.76a36.88,36.88,0,0,0,36.84,36.83H223.4a24.13,24.13,0,0,0,0-48.26H107.28a26.19,26.19,0,0,1,23.53-14.74l161.69,4.57c.35,0,28.21,10.31,28.21,10.31Zm-97.31,51a13.46,13.46,0,0,1,0,26.92H130.81a26.19,26.19,0,0,1-26.17-26.16c0-.26,0-.51,0-.76Z" transform="translate(16 14)"/><rect class="cls-3" x="336.71" y="980" width="8" height="40.41"/><path class="cls-5" d="M104.64,1017.72c0-.26,0-.51,0-.76H94c0,.25,0,.5,0,.76a36.85,36.85,0,0,0,1,8.32H106A26.06,26.06,0,0,1,104.64,1017.72Z" transform="translate(16 14)"/><path class="cls-5" d="M112.77,998.79H99.23a36.72,36.72,0,0,0-3.44,7.5h11.49A26.3,26.3,0,0,1,112.77,998.79Z" transform="translate(16 14)"/><rect class="cls-3" x="53.43" y="1020.29" width="14.89" height="10.67"/><rect class="cls-3" x="49.88" y="1018" width="7.37" height="16.01"/><path class="cls-5" d="M195.15,1067.77h-40a18.68,18.68,0,0,1,0-37.35h40a18.68,18.68,0,0,1,0,37.35Zm-40-29.73a11,11,0,1,0,0,22.1h40a11,11,0,0,0,0-22.1Z" transform="translate(16 14)"/><rect class="cls-5" x="160.71" y="982.3" width="15.75" height="4.57"/><path class="cls-4" d="M545.68,600c.39,37.42-.66,65.91-1.6,93.21a9.56,9.56,0,0,1-9.79,9.23h0a9.58,9.58,0,0,1-9.32-9c-5.33-85.9-3.36-48.37-10.79-202.11a10.76,10.76,0,0,0-2.24-6.07c-3.89-5-11.49-5.12-16-.63L468.5,512l1.59,8,22.35-10.8s2,118.27,1.58,181.74c.48,7.89-1.8,18.14,4.27,31,12,25.67,43.91,35,68.15,22.33,21.43-11,25.45-30.13,26.69-32.41,12.72-31.09,25.92-62.07,40.34-92.78Z" transform="translate(16 14)"/><path class="cls-3" d="M633.48,624.54a5.18,5.18,0,0,1-1.17-.13l-87.8-19.1a5.48,5.48,0,0,1,2.33-10.71l87.79,19.11a5.48,5.48,0,0,1-1.15,10.83Z" transform="translate(16 14)"/><rect class="cls-5" x="508.03" y="564.85" width="15.33" height="10.95" transform="translate(-1.45 30.27) rotate(-1.78)"/><path class="cls-5" d="M525.78,580.79a3.27,3.27,0,0,1-3.28-3.18l-.47-15a3.29,3.29,0,0,1,6.57-.2l.47,15a3.29,3.29,0,0,1-3.19,3.39Z" transform="translate(16 14)"/><rect class="cls-5" x="508.85" y="591.13" width="15.33" height="10.95" transform="translate(-2.26 30.31) rotate(-1.78)"/><path class="cls-5" d="M526.6,607.07a3.29,3.29,0,0,1-3.29-3.18l-.46-15a3.29,3.29,0,0,1,6.57-.2l.46,15a3.29,3.29,0,0,1-3.18,3.39Z" transform="translate(16 14)"/><rect class="cls-5" x="509.66" y="617.41" width="15.33" height="10.95" transform="translate(-3.07 30.35) rotate(-1.78)"/><path class="cls-5" d="M527.41,633.35a3.27,3.27,0,0,1-3.28-3.18l-.47-15a3.29,3.29,0,1,1,6.57-.2l.47,15a3.29,3.29,0,0,1-3.18,3.39Z" transform="translate(16 14)"/><rect class="cls-5" x="510.41" y="641.5" width="15.33" height="10.95" transform="translate(-3.82 30.38) rotate(-1.78)"/><path class="cls-5" d="M528.16,657.44a3.28,3.28,0,0,1-3.28-3.19l-.47-15a3.29,3.29,0,1,1,6.57-.2l.47,15a3.3,3.3,0,0,1-3.19,3.39Z" transform="translate(16 14)"/><polygon class="cls-5" points="561.66 619.62 647.12 637.91 643.33 646.23 561.66 619.62"/><polygon class="cls-5" points="484.46 525.92 488.05 532.92 471.11 543.31 473.31 534.75 484.46 525.92"/><path class="cls-5" d="M472.09,521.17a2.19,2.19,0,0,1-1.95-1.19l-3.59-7a2.19,2.19,0,0,1,3.9-2l3.59,7a2.19,2.19,0,0,1-1,2.95A2.23,2.23,0,0,1,472.09,521.17Z" transform="translate(16 14)"/><rect class="cls-4" x="421.96" y="853.54" width="211.04" height="15.63" transform="translate(1070.96 1736.72) rotate(180)"/><rect class="cls-4" x="421.96" y="808.6" width="211.04" height="15.63" transform="translate(1070.96 1646.83) rotate(180)"/><rect class="cls-3" x="595.49" y="765.16" width="28.72" height="144.6" transform="translate(1235.7 1688.93) rotate(180)"/><rect class="cls-3" x="554.04" y="773.42" width="28.72" height="128.1" transform="translate(1152.79 1688.93) rotate(180)"/><rect class="cls-3" x="512.58" y="780.74" width="28.72" height="113.45" transform="translate(1069.88 1688.93) rotate(180)"/><rect class="cls-3" x="471.13" y="790.03" width="28.72" height="94.88" transform="translate(986.97 1688.93) rotate(180)"/><rect class="cls-3" x="429.67" y="799.8" width="28.72" height="75.34" transform="translate(904.06 1688.93) rotate(180)"/><path class="cls-4" d="M602.61,894.63a6.89,6.89,0,1,1,6.89,6.89A6.9,6.9,0,0,1,602.61,894.63Z" transform="translate(16 14)"/><path class="cls-4" d="M602.61,783.25a6.89,6.89,0,1,1,6.89,6.88A6.89,6.89,0,0,1,602.61,783.25Z" transform="translate(16 14)"/><path class="cls-4" d="M561.51,887.3a6.89,6.89,0,1,1,6.88,6.89A6.89,6.89,0,0,1,561.51,887.3Z" transform="translate(16 14)"/><path class="cls-4" d="M561.51,787.64a6.89,6.89,0,1,1,6.88,6.89A6.89,6.89,0,0,1,561.51,787.64Z" transform="translate(16 14)"/><rect class="cls-4" x="389.71" y="667.34" width="7.91" height="40.83"/><path class="cls-3" d="M381.32,692.15c1.47,3.56-1.87,8.31-7.45,10.61s-11.31,1.3-12.78-2.26,1.87-8.31,7.46-10.62S379.85,688.59,381.32,692.15Z" transform="translate(16 14)"/><rect class="cls-4" x="419.24" y="659.13" width="7.91" height="40.83"/><path class="cls-3" d="M410.8,683.93c1.47,3.56-1.87,8.31-7.46,10.62s-11.3,1.29-12.77-2.27,1.87-8.31,7.46-10.61S409.33,680.37,410.8,683.93Z" transform="translate(16 14)"/><polygon class="cls-5" points="427.1 651.02 389.66 658.92 389.66 672.86 427.1 664.96 427.1 651.02"/><rect class="cls-3" x="322.9" y="100.92" width="12.05" height="2.13" transform="translate(673.84 217.98) rotate(-180)"/><path class="cls-5" d="M332.43,109.42h0a2.51,2.51,0,0,0,2.51-2.52V97.08a2.51,2.51,0,0,0-2.51-2.51h0a2.51,2.51,0,0,0-2.51,2.51v9.82A2.51,2.51,0,0,0,332.43,109.42Z" transform="translate(16 14)"/><path class="cls-5" d="M334.78,109.26a3.32,3.32,0,0,1-4.7,0,3.28,3.28,0,0,1-1-2.35V97.08a3.33,3.33,0,0,1,6.66,0v9.82A3.36,3.36,0,0,1,334.78,109.26Zm-3.55-13.38a1.68,1.68,0,0,0-.5,1.2v9.82a1.68,1.68,0,0,0,.5,1.2,1.66,1.66,0,0,0,1.2.5,1.74,1.74,0,0,0,1.7-1.7V97.08a1.68,1.68,0,0,0-.5-1.2,1.69,1.69,0,0,0-2.4,0Z" transform="translate(16 14)"/><rect class="cls-3" x="322.9" y="83.25" width="12.05" height="2.13" transform="translate(673.84 182.64) rotate(180)"/><path class="cls-5" d="M332.43,91.75h0a2.51,2.51,0,0,0,2.51-2.52V79.41a2.51,2.51,0,0,0-2.51-2.51h0a2.51,2.51,0,0,0-2.51,2.51v9.82A2.51,2.51,0,0,0,332.43,91.75Z" transform="translate(16 14)"/><path class="cls-5" d="M334.78,91.59a3.33,3.33,0,0,1-5.68-2.36V79.41a3.35,3.35,0,0,1,3.33-3.33,3.34,3.34,0,0,1,3.33,3.33v9.82A3.32,3.32,0,0,1,334.78,91.59Zm-3.55-13.38a1.68,1.68,0,0,0-.5,1.2v9.82a1.7,1.7,0,0,0,1.7,1.7,1.74,1.74,0,0,0,1.7-1.7V79.41a1.7,1.7,0,0,0-2.9-1.2Z" transform="translate(16 14)"/><rect class="cls-3" x="315.24" y="99.71" width="11.96" height="2.13"/><path class="cls-5" d="M301.73,94.2h0a2.5,2.5,0,0,1-2.49-2.5V81.85a2.5,2.5,0,0,1,2.49-2.5h0a2.5,2.5,0,0,1,2.5,2.5V91.7A2.5,2.5,0,0,1,301.73,94.2Z" transform="translate(16 14)"/><path class="cls-5" d="M304.07,94a3.25,3.25,0,0,1-2.34,1,3.31,3.31,0,0,1-3.3-3.31V81.85a3.31,3.31,0,1,1,6.61,0V91.7A3.25,3.25,0,0,1,304.07,94Zm-3.53-13.38a1.71,1.71,0,0,0-.49,1.19V91.7a1.68,1.68,0,0,0,1.68,1.68,1.72,1.72,0,0,0,1.68-1.68V81.85a1.68,1.68,0,0,0-2.87-1.19Z" transform="translate(16 14)"/><rect class="cls-3" x="315.24" y="82.05" width="11.96" height="2.13"/><path class="cls-3" d="M317.05,61.69H306.78v44.67a3.11,3.11,0,0,0,3.12,3.12h14.3a3.12,3.12,0,0,0,3.12-3.12V61.69Z" transform="translate(16 14)"/><path class="cls-3" d="M327,109.15a3.91,3.91,0,0,1-2.78,1.15H309.9a3.93,3.93,0,0,1-3.94-3.94V60.88h22.17v45.48A4,4,0,0,1,327,109.15ZM307.59,62.51v43.85a2.3,2.3,0,0,0,2.31,2.31h14.3a2.36,2.36,0,0,0,2.31-2.31V62.51Z" transform="translate(16 14)"/><path class="cls-4" d="M361.24,254.34c-10.56,0-19.12-10.61-19.12-23.69,0-12.28,7.53-22.37,17.19-23.57a32.41,32.41,0,0,0,.44-5.24c0-20.16-19.07-36.51-42.59-36.51s-42.59,16.35-42.59,36.51a31.67,31.67,0,0,0,.45,5.27c9.53,1.35,16.94,11.37,16.94,23.54,0,13.08-8.56,23.69-19.12,23.69a16,16,0,0,1-4.83-.76,40.44,40.44,0,0,0-4.57,18.6c0,25.44,24.05,46.06,53.72,46.06s53.72-20.62,53.72-46.06a40.36,40.36,0,0,0-4.61-18.67A15.7,15.7,0,0,1,361.24,254.34Z" transform="translate(16 14)"/><rect class="cls-5" x="326.27" y="126.57" width="13.57" height="146.22"/><path class="cls-5" d="M324.64,259.6H309.45V111.75h15.19ZM311.08,258H323V113.38H311.08Z" transform="translate(16 14)"/><path class="cls-3" d="M315.4,301.44h35.51a0,0,0,0,1,0,0v1.83a4.19,4.19,0,0,1-4.19,4.19H319.59a4.19,4.19,0,0,1-4.19-4.19v-1.83A0,0,0,0,1,315.4,301.44Z"/><rect class="cls-5" x="326.27" y="123.48" width="13.57" height="3.08"/><path class="cls-5" d="M324.64,113.38H309.45v-4.71h15.19Zm-13.56-1.63H323V110.3H311.08Z" transform="translate(16 14)"/><rect class="cls-5" x="337.03" y="93.55" width="1.87" height="29.94"/><rect class="cls-5" x="327.2" y="93.55" width="1.87" height="29.93"/><path class="cls-3" d="M317.05,61.69H306.78V75.32a10.27,10.27,0,0,0,10.27,10.27h0a10.27,10.27,0,0,0,10.27-10.27V61.69Z" transform="translate(16 14)"/><path class="cls-5" d="M301.73,76.54h0a2.5,2.5,0,0,1-2.49-2.5V64.19a2.5,2.5,0,0,1,2.49-2.5h0a2.5,2.5,0,0,1,2.5,2.5V74A2.5,2.5,0,0,1,301.73,76.54Z" transform="translate(16 14)"/><path class="cls-5" d="M304.07,76.38a3.25,3.25,0,0,1-2.34,1A3.32,3.32,0,0,1,298.42,74V64.19a3.29,3.29,0,0,1,3.3-3.31A3.31,3.31,0,0,1,305,64.19V74A3.25,3.25,0,0,1,304.07,76.38ZM300.54,63a1.71,1.71,0,0,0-.49,1.19V74a1.68,1.68,0,0,0,1.68,1.68A1.72,1.72,0,0,0,303.41,74V64.19A1.68,1.68,0,0,0,300.54,63Z" transform="translate(16 14)"/><path class="cls-3" d="M305.61,239.78a3.56,3.56,0,1,0-4,3.36,27.29,27.29,0,0,1-6,9,25.08,25.08,0,0,1-8.27,5.22,8.5,8.5,0,0,1,1.45,5.7c-.33,3.41-2,10.6,1.14,14.8h0a11.59,11.59,0,0,0,1.9,2.32h0a3.65,3.65,0,0,0,2.5,1,3.4,3.4,0,1,0,0-6.79,3.64,3.64,0,0,0-2.75,1.23,13.68,13.68,0,0,1-.56-5.73c.5-4.26,1.25-6.56,3-8.47s6.06-2.07,6.06-2.07a6.18,6.18,0,0,1,.16-6.55c2.18-3.67,5.36-8.86,5.42-12.84h0C305.6,239.91,305.61,239.84,305.61,239.78Z" transform="translate(16 14)"/><path class="cls-3" d="M328.49,239.78a3.56,3.56,0,1,1,4,3.36,27.13,27.13,0,0,0,6,9,25.1,25.1,0,0,0,8.26,5.22,8.56,8.56,0,0,0-1.45,5.7c.34,3.41,2,10.6-1.13,14.8h0a12,12,0,0,1-1.91,2.32h0a3.66,3.66,0,0,1-2.5,1,3.4,3.4,0,1,1,0-6.79,3.62,3.62,0,0,1,2.74,1.23,13.49,13.49,0,0,0,.57-5.73c-.5-4.26-1.25-6.56-3-8.47s-6.07-2.07-6.07-2.07a6.16,6.16,0,0,0-.16-6.55c-2.18-3.67-5.35-8.86-5.41-12.84h0A1.21,1.21,0,0,1,328.49,239.78Z" transform="translate(16 14)"/><path class="cls-6" d="M298,790.84a6.68,6.68,0,0,1,5.45,2.6l.09.12c.5.66.95,1.24,5.69,16.09A60.32,60.32,0,0,1,327.43,804a8,8,0,0,1,14.67-.41,61.67,61.67,0,0,1,21.41,6c1.61-5.61,1.9-6,2.26-6.56l.07-.1a6.68,6.68,0,0,1,5.33-2.84,6.76,6.76,0,0,1,7,6.43v.1c0,.7.05,1.26-2.1,8.39a8,8,0,0,1,5.67,2.21,8.07,8.07,0,0,1,2.06,8.29,60.83,60.83,0,0,1,13.61,30.76,8,8,0,0,1,.32,14.43,60.79,60.79,0,0,1-12.22,31.28,8,8,0,0,1-1.66,8.43,8,8,0,0,1-8.43,2,60.75,60.75,0,0,1-30.48,13.3,8,8,0,0,1-14.75.26,60.88,60.88,0,0,1-30.61-12,8,8,0,0,1-11.39-7.06,8,8,0,0,1,.62-3.3,60.78,60.78,0,0,1-13.14-29.89,8,8,0,0,1-.35-15,60.77,60.77,0,0,1,11.77-30.51A8,8,0,0,1,297.3,817.4l.49-.4c-6.43-17.61-6.43-18.44-6.44-19.31v-.12A6.77,6.77,0,0,1,298,790.84Z" transform="translate(16 14)"/><circle class="cls-3" cx="337.48" cy="922.74" r="4.38" transform="translate(-619.34 1074.43) rotate(-77.97)"/><circle class="cls-3" cx="334.85" cy="806.93" r="4.38" transform="translate(-508.16 980.2) rotate(-77.97)"/><circle class="cls-3" cx="278.27" cy="866.15" r="4.38" transform="translate(-610.86 971.73) rotate(-77.97)"/><path class="cls-3" d="M394,859.14a4.39,4.39,0,1,1-4.29,4.48A4.37,4.37,0,0,1,394,859.14Z" transform="translate(16 14)"/><path class="cls-3" d="M293,903.68a4.39,4.39,0,1,1,.14,6.2A4.38,4.38,0,0,1,293,903.68Z" transform="translate(16 14)"/><path class="cls-3" d="M373,819.94a4.38,4.38,0,1,1,.14,6.19A4.38,4.38,0,0,1,373,819.94Z" transform="translate(16 14)"/><path class="cls-3" d="M375,908a4.39,4.39,0,1,1,6.2-.14A4.38,4.38,0,0,1,375,908Z" transform="translate(16 14)"/><path class="cls-3" d="M291.27,828a4.39,4.39,0,1,1,6.2-.14A4.38,4.38,0,0,1,291.27,828Z" transform="translate(16 14)"/><circle class="cls-5" cx="336.48" cy="864.79" r="57.88" transform="translate(-3.52 21.85) rotate(-1.3)"/><path class="cls-5" d="M335.16,806.41a58.4,58.4,0,1,1-57.05,59.7A58.46,58.46,0,0,1,335.16,806.41Zm2.62,115.72a57.36,57.36,0,1,0-58.64-56A57.41,57.41,0,0,0,337.78,922.13Z" transform="translate(16 14)"/><circle class="cls-4" cx="336.48" cy="864.79" r="53.57" transform="translate(-551.56 1088.03) rotate(-81.77)"/><path class="cls-4" d="M335.26,810.71A54.09,54.09,0,1,1,282.41,866,54.16,54.16,0,0,1,335.26,810.71Zm2.43,107.12A53.05,53.05,0,1,0,283.44,866,53.12,53.12,0,0,0,337.69,917.83Z" transform="translate(16 14)"/><rect class="cls-7" x="329.8" y="910.3" width="15.52" height="3.4" transform="translate(711.7 1830.11) rotate(178.7)"/><path class="cls-3" d="M342.9,893.23c-.86,3-.19,5.76,1.49,6.25S348.13,898,349,895c.69-2.35.4-4.59-.58-5.66,2.93-9,26.22-80.09,26.12-82.61v-.08a3.18,3.18,0,0,0-5.74-1.67l-.05.07c-1.43,2.07-20,74.59-22.3,83.72C345,889.14,343.59,890.88,342.9,893.23Z" transform="translate(16 14)"/><path class="cls-3" d="M371.24,803.15h0a3.68,3.68,0,0,1,3.8,3.48v.08c.1,2.55-21.47,68.54-26.05,82.52,1,1.3,1.18,3.58.5,5.92-.83,2.85-2.69,4.87-4.53,4.91a2.19,2.19,0,0,1-.72-.09c-2-.58-2.79-3.6-1.83-6.88.68-2.35,2.07-4.16,3.6-4.73,5-19.48,20.9-81.56,22.31-83.61l0,0A3.58,3.58,0,0,1,371.24,803.15ZM344.94,899c1.34,0,2.87-1.82,3.56-4.17.6-2.09.41-4.21-.47-5.17l-.21-.22.1-.29C357.61,859.61,374,809,374,806.75v-.07a2.66,2.66,0,0,0-2.75-2.5h0a2.54,2.54,0,0,0-2.05,1.1l0,.06c-1.19,1.88-14.53,53.4-22.23,83.55l-.08.3-.29.07c-1.26.34-2.56,2-3.17,4.12-.77,2.63-.25,5.2,1.13,5.6A1.13,1.13,0,0,0,344.94,899Z" transform="translate(16 14)"/><path class="cls-3" d="M330.48,882.65c1,2.91.46,5.74-1.2,6.3s-3.81-1.34-4.8-4.26c-.79-2.31-.61-4.57.32-5.68C321.47,870.2,295,800.19,295,797.67v-.08a3.18,3.18,0,0,1,5.66-1.93l.05.07c1.52,2,23.34,73.61,26.08,82.62C328.17,878.65,329.69,880.33,330.48,882.65Z" transform="translate(16 14)"/><path class="cls-3" d="M298.09,793.94a3.61,3.61,0,0,1,2.94,1.4l.05.07c1.54,2,21.79,68.44,26.08,82.51,1.55.5,3,2.25,3.81,4.56a8.68,8.68,0,0,1,.41,4.3,3.22,3.22,0,0,1-1.93,2.66,2.48,2.48,0,0,1-.72.13c-1.83,0-3.78-1.9-4.74-4.71-.79-2.31-.69-4.59.23-5.94-5.21-13.76-29.75-78.7-29.77-81.25v-.08A3.68,3.68,0,0,1,298.09,793.94Zm30.62,94.59a1.09,1.09,0,0,0,.4-.07,2.24,2.24,0,0,0,1.26-1.87,7.68,7.68,0,0,0-.38-3.78c-.7-2-2.08-3.68-3.35-4l-.3-.06-.09-.29c-9.05-29.77-24.72-80.64-26-82.46l0-.06a2.52,2.52,0,0,0-2.1-1,2.65,2.65,0,0,0-2.63,2.62v.07c.11,2.23,18.79,52.07,29.81,81.16l.1.29-.19.23c-.84,1-.94,3.13-.23,5.19C325.76,886.84,327.36,888.57,328.71,888.53Z" transform="translate(16 14)"/><path class="cls-4" d="M472.18,1004.88l-3.58,3.67-3.59,3.68s50.41,60.62,56.73,62.48l.52.14a11.69,11.69,0,0,0,14-14.33l-.15-.52C534.06,1053.73,472.18,1004.88,472.18,1004.88Z" transform="translate(16 14)"/><ellipse class="cls-5" cx="451.07" cy="991.46" rx="33.21" ry="41.26" transform="translate(-557.72 636.31) rotate(-45.73)"/><path class="cls-5" d="M489.16,999a30.08,30.08,0,0,1-8.16,21.65c-13,13.32-37,11.08-53.5-5-9.09-8.86-14.39-20.42-14.53-31.71a30.07,30.07,0,0,1,8.16-21.64c13-13.33,37-11.08,53.5,5C483.72,976.16,489,987.72,489.16,999Zm-75.1-15.09c.14,11,5.31,22.28,14.2,30.94,16.08,15.68,39.38,17.93,52,5,5.24-5.38,8-12.6,7.85-20.87-.14-11-5.31-22.28-14.2-30.95-16.07-15.67-39.38-17.93-52-5C416.67,968.42,414,975.64,414.06,983.91Z" transform="translate(16 14)"/><path class="cls-3" d="M426,1012.81l45.75-46.91c-1-.91-2.11-1.76-3.2-2.55l-45.18,46.34C424.23,1010.75,425.1,1011.8,426,1012.81Z" transform="translate(16 14)"/><path class="cls-3" d="M478.71,973.22c-.82-1.07-1.7-2.11-2.63-3.13L430.33,1017c1.05.91,2.11,1.75,3.2,2.55Z" transform="translate(16 14)"/><path class="cls-4" d="M546.79,980.59l-3.59,3.68L539.62,988s50.4,60.62,56.72,62.48l.53.14a11.7,11.7,0,0,0,14-14.33c-.05-.18-.1-.35-.16-.52C608.67,1029.45,546.79,980.59,546.79,980.59Z" transform="translate(16 14)"/><ellipse class="cls-5" cx="525.67" cy="967.18" rx="33.21" ry="41.26" transform="translate(-517.81 682.4) rotate(-45.73)"/><path class="cls-3" d="M500.64,988.53l45.74-46.92c-1-.9-2.1-1.75-3.19-2.55L498,985.4C498.83,986.47,499.71,987.51,500.64,988.53Z" transform="translate(16 14)"/><path class="cls-3" d="M553.32,948.93c-.83-1.06-1.7-2.11-2.63-3.12l-45.75,46.92c1,.9,2.11,1.75,3.19,2.55Z" transform="translate(16 14)"/><path class="cls-4" d="M110.44,786.2c9-7.66,22.26-10,33.93-6a27.47,27.47,0,0,0,8.9,1.48c16.84,0,30.49-15.27,30.49-34.11s-13.65-34.11-30.49-34.11a27.47,27.47,0,0,0-8.9,1.48c-11.67,4-24.91,1.62-33.93-6A40.27,40.27,0,0,0,84.24,699c-24,0-43.38,21.73-43.38,48.53s19.42,48.53,43.38,48.53A40.27,40.27,0,0,0,110.44,786.2Z" transform="translate(16 14)"/><circle class="cls-5" cx="131.77" cy="747.55" r="19.98" transform="translate(-611.25 771.18) rotate(-80.73)"/><circle class="cls-3" cx="151.49" cy="761.53" r="19.98"/><path class="cls-5" d="M150.58,747.53a15.09,15.09,0,1,1-15.09-15.09,15.11,15.11,0,0,1,15.09,15.09m4.9,0a20,20,0,1,0-20,20,20,20,0,0,0,20-20Z" transform="translate(16 14)"/><path class="cls-3" d="M82.22,767.51a6,6,0,0,1-6-6V733.5a6,6,0,0,1,6-6h0a5.94,5.94,0,0,1,5.94,6v28.06a5.94,5.94,0,0,1-5.94,6Z" transform="translate(16 14)"/><polygon class="cls-4" points="296.86 768.43 296.86 754.63 151.49 751.67 151.49 771.39 296.86 768.43"/><polygon class="cls-5" points="266.58 769.1 296.81 768.49 296.81 754.69 266.58 754.07 266.58 769.1"/><rect class="cls-3" x="266.07" y="729.97" width="19.72" height="35.12" transform="translate(1039.45 485.61) rotate(90)"/><rect class="cls-5" x="299.08" y="746.54" width="3.67" height="29.98"/><rect class="cls-5" x="289.9" y="746.54" width="3.67" height="29.98"/><rect class="cls-5" x="280.73" y="746.54" width="3.67" height="29.98"/><path class="cls-3" d="M284.92,736a3.27,3.27,0,1,1,3.26-3.27A3.27,3.27,0,0,1,284.92,736Z" transform="translate(16 14)"/><circle class="cls-3" cx="291.74" cy="746.54" r="3.26"/><circle class="cls-3" cx="282.56" cy="746.54" r="3.26"/><circle class="cls-3" cx="300.92" cy="776.61" r="3.26"/><circle class="cls-3" cx="291.74" cy="776.43" r="3.26"/><circle class="cls-3" cx="282.56" cy="776.43" r="3.26"/><rect class="cls-5" x="151.49" y="760.92" width="118.53" height="1.22"/><rect class="cls-5" x="135.49" y="749.98" width="118.53" height="1.22" transform="translate(8.26 16.05) rotate(-0.59)"/><rect class="cls-5" x="135.48" y="753.04" width="118.55" height="1.22" transform="translate(0.48 18.18) rotate(-1.18)"/><rect class="cls-5" x="194.14" y="685.2" width="1.22" height="118.53" transform="translate(-535.69 945.5) rotate(-89.41)"/><rect class="cls-5" x="194.14" y="682.14" width="1.22" height="118.55" transform="translate(-534.53 934.77) rotate(-88.81)"/><path class="cls-5" d="M87.65,657.67a20.38,20.38,0,0,0-9.76,6.71l-30.43-10s-1.38-8.68,5.45-11.74,10.8,3.36,10.8,3.36l14.18-1.57a14.51,14.51,0,0,0,9.76,5.43Z" transform="translate(16 14)"/><path class="cls-4" d="M191.71,643.2v20.89s6.26,3.82,0,11.47-20.19,3.56-24.74,6.62,4.14,16.82,27.52,10.45,23.67-8.92,36.18-5.35,30.71,17.84,50.62,11.72,23.82-24.44,23.89-47.65c.06-23.75-12.23-36.69-24.74-42.05s-28.72,2.81-39.81,9.18-16.21,4.58-26.74-2-28.15-.76-28.15,1.53,16.21,6.11,21.33,11.47S207.64,644.72,191.71,643.2Z" transform="translate(16 14)"/><rect class="cls-5" x="272.44" y="647.39" width="23.85" height="13.1" rx="2.87" transform="translate(-353.58 952.29) rotate(-90)"/><rect class="cls-5" x="140.15" y="591" width="12.38" height="126.07" transform="matrix(0, -1, 1, 0, -491.7, 814.38)"/><path class="cls-5" d="M210.17,647.05v14H82.51v-14Zm-1.59,12.38V648.64H84.1v10.79Z" transform="translate(16 14)"/><path class="cls-3" d="M263.85,651.19h32.4a0,0,0,0,1,0,0v1.67a3.82,3.82,0,0,1-3.82,3.82H267.67a3.82,3.82,0,0,1-3.82-3.82v-1.67A0,0,0,0,1,263.85,651.19Z" transform="translate(-357.88 947.99) rotate(-90)"/><path class="cls-3" d="M282.24,638.29a4.6,4.6,0,0,1,1.36,3.27v24.75a4.63,4.63,0,0,1-4.62,4.62h-2.47v-34H279A4.58,4.58,0,0,1,282.24,638.29Zm-4.14,31.05H279a3,3,0,0,0,2.14-.88,3.05,3.05,0,0,0,.89-2.15V641.56a3.11,3.11,0,0,0-3-3h-.88Z" transform="translate(16 14)"/><rect class="cls-3" x="78.53" y="652.63" width="12.38" height="2.81" transform="translate(-553.32 752.75) rotate(-90)"/><path class="cls-3" d="M86.92,647.05v14H82.51v-14Zm-1.59,12.38V648.64H84.1v10.79Z" transform="translate(16 14)"/><rect class="cls-5" x="242.29" y="647.67" width="32.4" height="12.54" rx="3.28" transform="translate(-379.44 926.43) rotate(-90)"/><rect class="cls-5" x="213.02" y="647.67" width="32.4" height="12.54" rx="3.28" transform="translate(-408.71 897.16) rotate(-90)"/><path class="cls-5" d="M456.28,759.88h10.1a0,0,0,0,1,0,0v20.18a3.59,3.59,0,0,1-3.59,3.59h-2.92a3.59,3.59,0,0,1-3.59-3.59V759.88A0,0,0,0,1,456.28,759.88Z"/><path class="cls-4" d="M445.33,642.17H427l6.7,104.66a11.68,11.68,0,0,0,11.66,10.94h0A11.69,11.69,0,0,0,457,746.83l6.7-104.66Z" transform="translate(16 14)"/><path class="cls-4" d="M454,754.72h0a12.22,12.22,0,0,1-20.84-7.86L426.4,641.64h37.85l0,.56-6.7,104.66A12.21,12.21,0,0,1,454,754.72Zm-26.43-112,6.66,104.1a11.15,11.15,0,0,0,19,7.17h0a11.23,11.23,0,0,0,3.24-7.17l6.66-104.1Z" transform="translate(16 14)"/><circle class="cls-3" cx="445.33" cy="616.82" r="27.74" transform="translate(-289.73 509.56) rotate(-45)"/><path class="cls-4" d="M472.93,619.49a26.23,26.23,0,0,0,.13-2.67,27.94,27.94,0,0,0-.26-3.79L469,609.21l2.27-2.27a24.91,24.91,0,0,0-1.12-2.53l-3,3-5.54-5.54,4-4c-.59-.63-1.2-1.23-1.84-1.8L459.8,600l-5.95-5.95,2.65-2.65a27,27,0,0,0-2.64-1L452,592.26l-2.91-2.91a27.75,27.75,0,0,0-7.58,0l-3.33,3.33-2-2c-.89.31-1.75.66-2.59,1.05l2.81,2.81L430.85,600l-3.94-3.94c-.64.57-1.26,1.17-1.85,1.8l4,4-5.95,6L420.24,605c-.39.84-.75,1.7-1.06,2.58l2.08,2.08-3.41,3.4a27.94,27.94,0,0,0-.26,3.79c0,.9.05,1.79.13,2.67l3.54,3.54-2.33,2.32c.29.9.63,1.78,1,2.64l3.15-3.14L429,630.8l-4.44,4.44c.57.64,1.17,1.26,1.8,1.85l4.46-4.47,5.54,5.54-3.48,3.47c.82.41,1.67.78,2.53,1.11l2.77-2.76,4.45,4.45c.88.08,1.77.13,2.67.13s1.79,0,2.67-.13l4-4L454.6,643c.88-.31,1.74-.67,2.58-1.06l-3.33-3.33,5.95-6,4.46,4.47c.63-.59,1.23-1.21,1.8-1.85l-4.44-4.44,5.54-5.53,3.3,3.3c.39-.84.74-1.7,1.05-2.59L469,623.45Zm-7.59-10.28-5.3,5.3L454.5,609l5.3-5.3Zm-21.83,7.12-6,5.95-5.95-5.95,5.95-6Zm-4.14-7.78,5.54-5.53,5.95,6-5.53,5.54Zm6,9.6,5.53,5.53-5.95,6-5.54-5.54Zm1.82-1.82,5.53-5.54,5.54,5.54-5.54,5.53ZM458,601.85l-5.3,5.3-5.95-5.95,5.3-5.3ZM445.33,589.2l4.88,4.88-5.3,5.3L440,594.5Zm-7.12,7.12,4.88,4.88-5.54,5.53-4.88-4.88Zm-7.36,7.35,4.88,4.88-6,6-4.88-4.88ZM418.2,616.33l4.88-4.88,4.88,4.88-4.88,4.88Zm6.7,6.7,4.88-4.88,6,6L430.85,629Zm7.77,7.77,4.88-4.88,5.54,5.54-4.88,4.88Zm12.66,12.66-5.3-5.3,4.88-4.88,5.3,5.3Zm6.7-6.7-5.3-5.3,5.95-6,5.3,5.3ZM459.8,629l-5.3-5.3,5.54-5.53,5.3,5.3Zm2.06-12.65,5.3-5.3,5.3,5.3-5.3,5.3Z" transform="translate(16 14)"/><rect class="cls-5" x="440.86" y="649.53" width="40.94" height="13.27"/><path class="cls-5" d="M466.33,649.34h-42V635h42Zm-40.94-1.07h39.88V636.06H425.39Z" transform="translate(16 14)"/><path class="cls-5" d="M256.45,120.81a16.84,16.84,0,0,1,8,5.52l25-8.17s1.13-7.14-4.48-9.65-8.87,2.77-8.87,2.77L264.47,110a12,12,0,0,1-8,4.45Z" transform="translate(16 14)"/><path class="cls-4" d="M171,108.93v17.16s-5.14,3.14,0,9.42,16.58,2.93,20.32,5.44-3.4,13.81-22.61,8.58-19.43-7.32-29.71-4.39-25.23,14.65-41.57,9.62-19.57-20.07-19.62-39.13c-.06-19.51,10-30.14,20.32-34.53s23.59,2.3,32.69,7.53,13.32,3.77,22-1.67,23.12-.63,23.12,1.25-13.31,5-17.52,9.42S157.9,110.19,171,108.93Z" transform="translate(16 14)"/><rect class="cls-5" x="85.09" y="112.37" width="19.59" height="10.76" rx="2.36" transform="translate(-6.87 226.64) rotate(-90)"/><rect class="cls-5" x="203.16" y="66.06" width="10.17" height="103.54" transform="translate(106.41 340.08) rotate(-90)"/><path class="cls-5" d="M260.67,112.1v11.47H155.82V112.1Zm-1.31,10.17v-8.86H157.12v8.87Z" transform="translate(16 14)"/><path class="cls-3" d="M88.26,115.49h20.33a3.14,3.14,0,0,1,3.14,3.14V120a0,0,0,0,1,0,0H85.12a0,0,0,0,1,0,0v-1.37A3.14,3.14,0,0,1,88.26,115.49Z" transform="translate(-3.33 230.17) rotate(-90)"/><path class="cls-3" d="M99.31,103.79h2v27.92h-2a3.79,3.79,0,0,1-3.8-3.79V107.58a3.79,3.79,0,0,1,3.8-3.79Zm.72,1.31h-.72a2.55,2.55,0,0,0-2.49,2.48v20.34a2.49,2.49,0,0,0,2.49,2.49H100Z" transform="translate(16 14)"/><rect class="cls-3" x="253.78" y="116.68" width="10.17" height="2.31" transform="translate(157.02 390.69) rotate(-90)"/><path class="cls-3" d="M260.67,112.1v11.47h-3.62V112.1Zm-1.31,10.17v-8.86h-1v8.87Z" transform="translate(16 14)"/><rect class="cls-5" x="102.82" y="112.6" width="26.61" height="10.3" rx="2.69" transform="translate(14.38 247.88) rotate(-90)"/><rect class="cls-5" x="126.86" y="112.6" width="26.61" height="10.3" rx="2.69" transform="translate(38.42 271.92) rotate(-90)"/><rect class="cls-5" x="83.48" y="821.05" width="128.54" height="120.03" transform="translate(311.5 1776.13) rotate(180)"/><line class="cls-8" x1="163.75" y1="835.05" x2="163.75" y2="955.08"/><line class="cls-8" x1="146.48" y1="835.05" x2="146.48" y2="955.08"/><line class="cls-8" x1="129.21" y1="835.05" x2="129.21" y2="955.08"/><line class="cls-8" x1="111.93" y1="835.05" x2="111.93" y2="955.08"/><line class="cls-8" x1="181.02" y1="835.05" x2="181.02" y2="955.08"/><line class="cls-8" x1="198.29" y1="835.05" x2="198.29" y2="955.08"/><line class="cls-8" x1="215.56" y1="835.05" x2="215.56" y2="955.08"/><rect class="cls-4" x="65.93" y="813.13" width="19.7" height="135.87" transform="translate(167.56 1776.13) rotate(180)"/><path class="cls-5" d="M42.89,821h18.9a4.14,4.14,0,0,1,4.14,4.14V936.95a4.14,4.14,0,0,1-4.14,4.14H42.89a0,0,0,0,1,0,0V821a0,0,0,0,1,0,0Z" transform="translate(124.81 1776.13) rotate(180)"/><rect class="cls-4" x="228.02" y="827.13" width="42.74" height="135.87"/><rect class="cls-5" x="247.72" y="838.55" width="23.04" height="113.03"/><line class="cls-9" x1="81.93" y1="843.25" x2="58.89" y2="843.25"/><line class="cls-9" x1="81.93" y1="850.16" x2="58.89" y2="850.16"/><line class="cls-9" x1="81.93" y1="857.07" x2="58.89" y2="857.07"/><line class="cls-9" x1="81.93" y1="863.98" x2="58.89" y2="863.98"/><line class="cls-9" x1="81.93" y1="870.89" x2="58.89" y2="870.89"/><line class="cls-9" x1="81.93" y1="877.8" x2="58.89" y2="877.8"/><line class="cls-9" x1="81.93" y1="884.7" x2="58.89" y2="884.7"/><line class="cls-9" x1="81.93" y1="891.61" x2="58.89" y2="891.61"/><line class="cls-9" x1="81.93" y1="898.52" x2="58.89" y2="898.52"/><line class="cls-9" x1="81.93" y1="905.43" x2="58.89" y2="905.43"/><line class="cls-9" x1="81.93" y1="912.34" x2="58.89" y2="912.34"/><line class="cls-9" x1="81.93" y1="919.25" x2="58.89" y2="919.25"/><line class="cls-9" x1="81.93" y1="926.15" x2="58.89" y2="926.15"/><line class="cls-9" x1="81.93" y1="933.06" x2="58.89" y2="933.06"/><line class="cls-9" x1="81.93" y1="939.97" x2="58.89" y2="939.97"/><line class="cls-9" x1="81.93" y1="946.88" x2="58.89" y2="946.88"/><rect class="cls-4" x="53.79" y="827.05" width="12.13" height="4.32" transform="translate(135.72 1672.42) rotate(180)"/><rect class="cls-4" x="53.79" y="834" width="12.13" height="4.32" transform="translate(135.72 1686.32) rotate(180)"/><rect class="cls-4" x="53.79" y="847.8" width="12.13" height="4.32" transform="translate(135.72 1713.91) rotate(180)"/><rect class="cls-4" x="53.79" y="854.75" width="12.13" height="4.32" transform="translate(135.72 1727.82) rotate(180)"/><rect class="cls-4" x="53.79" y="861.64" width="12.13" height="4.32" transform="translate(135.72 1741.59) rotate(180)"/><rect class="cls-4" x="53.79" y="896.17" width="12.13" height="4.32" transform="translate(135.72 1810.65) rotate(180)"/><rect class="cls-4" x="53.79" y="903.12" width="12.13" height="4.32" transform="translate(135.72 1824.56) rotate(180)"/><rect class="cls-4" x="53.79" y="910.01" width="12.13" height="4.32" transform="translate(135.72 1838.33) rotate(180)"/><rect class="cls-4" x="53.79" y="923.8" width="12.13" height="4.32" transform="translate(135.72 1865.92) rotate(180)"/><rect class="cls-4" x="53.79" y="930.69" width="12.13" height="4.32" transform="translate(135.72 1879.7) rotate(180)"/><rect class="cls-4" x="53.79" y="875.46" width="12.13" height="4.32" transform="translate(135.72 1769.25) rotate(180)"/><rect class="cls-4" x="53.79" y="882.35" width="12.13" height="4.32" transform="translate(135.72 1783.02) rotate(180)"/><path class="cls-3" d="M236.39,834a2.74,2.74,0,1,0,2.74-2.74A2.74,2.74,0,0,0,236.39,834Z" transform="translate(16 14)"/><circle class="cls-3" cx="255.13" cy="858.42" r="2.74"/><circle class="cls-3" cx="255.13" cy="868.88" r="2.74"/><path class="cls-3" d="M236.39,865.34a2.74,2.74,0,1,0,2.74-2.74A2.74,2.74,0,0,0,236.39,865.34Z" transform="translate(16 14)"/><circle class="cls-3" cx="255.13" cy="889.8" r="2.74"/><circle class="cls-3" cx="255.13" cy="900.25" r="2.74"/><circle class="cls-3" cx="255.13" cy="910.71" r="2.74"/><path class="cls-3" d="M236.39,907.17a2.74,2.74,0,1,0,2.74-2.74A2.74,2.74,0,0,0,236.39,907.17Z" transform="translate(16 14)"/><circle class="cls-3" cx="255.13" cy="931.62" r="2.74"/><path class="cls-3" d="M244.81,839.24a2.74,2.74,0,1,0,2.74-2.74A2.74,2.74,0,0,0,244.81,839.24Z" transform="translate(16 14)"/><path class="cls-3" d="M244.81,849.7a2.74,2.74,0,1,0,2.74-2.75A2.74,2.74,0,0,0,244.81,849.7Z" transform="translate(16 14)"/><path class="cls-3" d="M244.81,860.15a2.74,2.74,0,1,0,2.74-2.74A2.73,2.73,0,0,0,244.81,860.15Z" transform="translate(16 14)"/><path class="cls-3" d="M244.81,870.61a2.74,2.74,0,1,0,2.74-2.74A2.74,2.74,0,0,0,244.81,870.61Z" transform="translate(16 14)"/><path class="cls-3" d="M244.81,881.07a2.74,2.74,0,1,0,2.74-2.75A2.74,2.74,0,0,0,244.81,881.07Z" transform="translate(16 14)"/><path class="cls-3" d="M244.81,891.52a2.74,2.74,0,1,0,2.74-2.74A2.74,2.74,0,0,0,244.81,891.52Z" transform="translate(16 14)"/><path class="cls-3" d="M244.81,902a2.74,2.74,0,1,0,2.74-2.74A2.73,2.73,0,0,0,244.81,902Z" transform="translate(16 14)"/><path class="cls-3" d="M244.81,912.44a2.74,2.74,0,1,0,2.74-2.74A2.74,2.74,0,0,0,244.81,912.44Z" transform="translate(16 14)"/><path class="cls-3" d="M244.81,922.9a2.74,2.74,0,1,0,2.74-2.75A2.74,2.74,0,0,0,244.81,922.9Z" transform="translate(16 14)"/><polygon class="cls-3" points="208.99 955.07 213.29 955.07 213.29 835.04 208.99 955.07"/><polygon class="cls-3" points="191.73 955.08 196.04 955.08 196.04 835.05 191.73 955.08"/><polygon class="cls-3" points="174.52 955.08 178.82 955.08 178.82 835.05 174.52 955.08"/><polygon class="cls-3" points="157.17 955.08 161.47 955.08 161.47 835.05 157.17 955.08"/><polygon class="cls-3" points="139.96 955.08 144.26 955.08 144.26 835.05 139.96 955.08"/><polygon class="cls-3" points="122.75 955.08 127.05 955.08 127.05 835.05 122.75 955.08"/><polygon class="cls-3" points="105.36 955.08 109.66 955.08 109.66 835.05 105.36 955.08"/><polygon class="cls-3" points="223.72 955.08 228.02 955.08 228.02 835.05 223.72 955.08"/><polygon class="cls-3" points="118.4 835.05 114.09 835.05 114.09 955.08 118.4 835.05"/><polygon class="cls-3" points="135.8 835.05 131.49 835.05 131.49 955.08 135.8 835.05"/><polygon class="cls-3" points="153.06 835.05 148.76 835.05 148.76 955.08 153.06 835.05"/><polygon class="cls-3" points="170.33 835.05 166.03 835.05 166.03 955.09 170.33 835.05"/><polygon class="cls-3" points="187.6 835.05 183.3 835.05 183.3 955.08 187.6 835.05"/><polygon class="cls-3" points="204.85 835.05 200.55 835.05 200.55 955.08 204.85 835.05"/><polygon class="cls-3" points="222.15 835.05 217.84 835.05 217.84 955.08 222.15 835.05"/><polygon class="cls-3" points="105.93 835.05 101.63 835.05 101.63 955.08 105.93 835.05"/><rect class="cls-4" x="594.19" y="528.05" width="7.91" height="40.83"/><path class="cls-3" d="M585.8,552.85c1.47,3.56-1.87,8.31-7.45,10.62s-11.3,1.29-12.77-2.27,1.87-8.31,7.45-10.61S584.33,549.3,585.8,552.85Z" transform="translate(16 14)"/><rect class="cls-4" x="623.72" y="519.83" width="7.91" height="40.83"/><path class="cls-3" d="M615.28,544.64c1.47,3.55-1.87,8.3-7.45,10.61s-11.31,1.29-12.77-2.27,1.86-8.31,7.45-10.61S613.81,541.08,615.28,544.64Z" transform="translate(16 14)"/><polygon class="cls-5" points="631.58 511.73 594.15 519.63 594.14 533.56 631.58 525.66 631.58 511.73"/><rect class="cls-5" x="349.26" y="528.82" width="8.69" height="63.96"/><rect class="cls-5" x="347.19" y="526.96" width="12.83" height="3.73"/><rect class="cls-5" x="330.63" y="528.82" width="8.69" height="63.96"/><rect class="cls-5" x="328.56" y="526.96" width="12.83" height="3.73"/><rect class="cls-5" x="367.89" y="528.82" width="8.69" height="63.96"/><path class="cls-4" d="M219.25,544s22.69-8.39,23-8.39L374,531.9a21.35,21.35,0,0,1,19.18,12H298.53a19.67,19.67,0,0,0,0,39.33H374a30.06,30.06,0,0,0,30-30c0-.21,0-.41,0-.62h37.67a4.35,4.35,0,1,0,0-8.69H402.51A30.07,30.07,0,0,0,374,523.21l-131.74-3.73c-.29,0-23-8.4-23-8.4Zm176,8.58c0,.21,0,.41,0,.62A21.34,21.34,0,0,1,374,574.54H298.53a11,11,0,0,1,0-21.94Z" transform="translate(16 14)"/><rect class="cls-3" x="212.73" y="511.08" width="6.52" height="32.93" transform="translate(447.98 1069.09) rotate(-180)"/><path class="cls-5" d="M395.29,553.22c0-.21,0-.41,0-.62H404c0,.21,0,.41,0,.62a29.74,29.74,0,0,1-.79,6.78h-9A21.14,21.14,0,0,0,395.29,553.22Z" transform="translate(16 14)"/><path class="cls-5" d="M388.67,537.8h11a30,30,0,0,1,2.81,6.11h-9.36A21.48,21.48,0,0,0,388.67,537.8Z" transform="translate(16 14)"/><rect class="cls-3" x="437.93" y="543.91" width="12.13" height="8.69" transform="translate(903.98 1110.51) rotate(-180)"/><rect class="cls-3" x="446.95" y="542.04" width="6" height="13.04" transform="translate(915.91 1111.13) rotate(-180)"/><path class="cls-5" d="M306.34,578.79a15.23,15.23,0,0,1,15.21-15.22h32.62a15.22,15.22,0,1,1,0,30.43H321.55A15.23,15.23,0,0,1,306.34,578.79Zm15.21-9a9,9,0,0,0,0,18h32.62a9,9,0,1,0,0-18Z" transform="translate(16 14)"/><rect class="cls-5" x="365.82" y="526.96" width="12.83" height="3.73"/><rect class="cls-5" x="411.9" y="78.57" width="103.91" height="97.03"/><line class="cls-10" x1="463.85" y1="78.57" x2="463.85" y2="175.6"/><line class="cls-10" x1="477.81" y1="78.57" x2="477.81" y2="175.6"/><line class="cls-10" x1="491.77" y1="78.57" x2="491.77" y2="175.6"/><line class="cls-10" x1="505.73" y1="78.57" x2="505.73" y2="175.6"/><line class="cls-10" x1="449.89" y1="78.57" x2="449.89" y2="175.6"/><line class="cls-10" x1="435.93" y1="78.57" x2="435.93" y2="175.6"/><line class="cls-10" x1="421.97" y1="78.57" x2="421.97" y2="175.6"/><rect class="cls-4" x="514.06" y="72.17" width="15.93" height="109.83"/><path class="cls-5" d="M530,78.57h15.28a3.34,3.34,0,0,1,3.34,3.34v90.34a3.34,3.34,0,0,1-3.34,3.34H530a0,0,0,0,1,0,0v-97A0,0,0,0,1,530,78.57Z"/><rect class="cls-4" x="361.35" y="58.17" width="34.55" height="109.83" transform="translate(773.25 240.17) rotate(-180)"/><rect class="cls-5" x="361.35" y="67.41" width="18.62" height="91.36" transform="translate(757.32 240.17) rotate(-180)"/><line class="cls-11" x1="529.99" y1="85.2" x2="548.61" y2="85.2"/><line class="cls-11" x1="529.99" y1="90.79" x2="548.61" y2="90.79"/><line class="cls-11" x1="529.99" y1="96.37" x2="548.61" y2="96.37"/><line class="cls-11" x1="529.99" y1="101.96" x2="548.61" y2="101.96"/><line class="cls-11" x1="529.99" y1="107.54" x2="548.61" y2="107.54"/><line class="cls-11" x1="529.99" y1="113.13" x2="548.61" y2="113.13"/><line class="cls-11" x1="529.99" y1="118.71" x2="548.61" y2="118.71"/><line class="cls-11" x1="529.99" y1="124.29" x2="548.61" y2="124.29"/><line class="cls-11" x1="529.99" y1="129.88" x2="548.61" y2="129.88"/><line class="cls-11" x1="529.99" y1="135.46" x2="548.61" y2="135.46"/><line class="cls-11" x1="529.99" y1="141.05" x2="548.61" y2="141.05"/><line class="cls-11" x1="529.99" y1="146.63" x2="548.61" y2="146.63"/><line class="cls-11" x1="529.99" y1="152.22" x2="548.61" y2="152.22"/><line class="cls-11" x1="529.99" y1="157.8" x2="548.61" y2="157.8"/><line class="cls-11" x1="529.99" y1="163.39" x2="548.61" y2="163.39"/><line class="cls-11" x1="529.99" y1="168.97" x2="548.61" y2="168.97"/><rect class="cls-4" x="529.99" y="83.42" width="9.81" height="3.49"/><rect class="cls-4" x="529.99" y="89.04" width="9.81" height="3.49"/><rect class="cls-4" x="529.99" y="100.19" width="9.81" height="3.49"/><rect class="cls-4" x="529.99" y="105.81" width="9.81" height="3.49"/><rect class="cls-4" x="529.99" y="111.38" width="9.81" height="3.49"/><rect class="cls-4" x="529.99" y="139.29" width="9.81" height="3.49"/><rect class="cls-4" x="529.99" y="144.91" width="9.81" height="3.49"/><rect class="cls-4" x="529.99" y="150.48" width="9.81" height="3.49"/><rect class="cls-4" x="529.99" y="161.63" width="9.81" height="3.49"/><rect class="cls-4" x="529.99" y="167.2" width="9.81" height="3.49"/><rect class="cls-4" x="529.99" y="122.56" width="9.81" height="3.49"/><rect class="cls-4" x="529.99" y="128.13" width="9.81" height="3.49"/><path class="cls-3" d="M376.2,75A2.22,2.22,0,1,1,374,72.8,2.21,2.21,0,0,1,376.2,75Z" transform="translate(16 14)"/><circle class="cls-3" cx="389.99" cy="97.47" r="2.22"/><circle class="cls-3" cx="389.99" cy="105.92" r="2.22"/><path class="cls-3" d="M376.2,100.37A2.22,2.22,0,1,1,374,98.16,2.21,2.21,0,0,1,376.2,100.37Z" transform="translate(16 14)"/><circle class="cls-3" cx="389.99" cy="122.83" r="2.22"/><circle class="cls-3" cx="389.99" cy="131.28" r="2.22"/><circle class="cls-3" cx="389.99" cy="139.73" r="2.22"/><path class="cls-3" d="M376.2,134.18A2.22,2.22,0,1,1,374,132,2.21,2.21,0,0,1,376.2,134.18Z" transform="translate(16 14)"/><circle class="cls-3" cx="389.99" cy="156.64" r="2.22"/><path class="cls-3" d="M369.4,79.28a2.22,2.22,0,1,1-2.22-2.22A2.22,2.22,0,0,1,369.4,79.28Z" transform="translate(16 14)"/><path class="cls-3" d="M369.4,87.73a2.22,2.22,0,1,1-2.22-2.22A2.22,2.22,0,0,1,369.4,87.73Z" transform="translate(16 14)"/><path class="cls-3" d="M369.4,96.18A2.22,2.22,0,1,1,367.18,94,2.22,2.22,0,0,1,369.4,96.18Z" transform="translate(16 14)"/><path class="cls-3" d="M369.4,104.63a2.22,2.22,0,1,1-2.22-2.21A2.22,2.22,0,0,1,369.4,104.63Z" transform="translate(16 14)"/><path class="cls-3" d="M369.4,113.09a2.22,2.22,0,1,1-2.22-2.22A2.22,2.22,0,0,1,369.4,113.09Z" transform="translate(16 14)"/><path class="cls-3" d="M369.4,121.54a2.22,2.22,0,1,1-2.22-2.22A2.23,2.23,0,0,1,369.4,121.54Z" transform="translate(16 14)"/><path class="cls-3" d="M369.4,130a2.22,2.22,0,1,1-2.22-2.21A2.22,2.22,0,0,1,369.4,130Z" transform="translate(16 14)"/><path class="cls-3" d="M369.4,138.45a2.22,2.22,0,1,1-2.22-2.22A2.22,2.22,0,0,1,369.4,138.45Z" transform="translate(16 14)"/><path class="cls-3" d="M369.4,146.9a2.22,2.22,0,1,1-2.22-2.22A2.22,2.22,0,0,1,369.4,146.9Z" transform="translate(16 14)"/><polygon class="cls-3" points="427.28 175.59 423.81 175.59 423.81 78.56 427.28 175.59"/><polygon class="cls-3" points="441.23 175.6 437.75 175.6 437.75 78.57 441.23 175.6"/><polygon class="cls-3" points="455.15 175.6 451.67 175.6 451.67 78.57 455.15 175.6"/><polygon class="cls-3" points="469.17 175.6 465.69 175.6 465.69 78.57 469.17 175.6"/><polygon class="cls-3" points="483.08 175.6 479.6 175.6 479.6 78.57 483.08 175.6"/><polygon class="cls-3" points="497 175.6 493.52 175.6 493.52 78.57 497 175.6"/><polygon class="cls-3" points="511.05 175.6 507.57 175.6 507.57 78.57 511.05 175.6"/><polygon class="cls-3" points="415.38 175.6 411.9 175.6 411.9 78.57 415.38 175.6"/><polygon class="cls-3" points="500.51 78.57 503.99 78.57 503.99 175.6 500.51 78.57"/><polygon class="cls-3" points="486.45 78.57 489.93 78.57 489.93 175.6 486.45 78.57"/><polygon class="cls-3" points="472.49 78.57 475.97 78.57 475.97 175.6 472.49 78.57"/><polygon class="cls-3" points="458.53 78.58 462.01 78.58 462.01 175.6 458.53 78.58"/><polygon class="cls-3" points="444.57 78.57 448.05 78.57 448.05 175.6 444.57 78.57"/><polygon class="cls-3" points="430.62 78.57 434.1 78.57 434.1 175.6 430.62 78.57"/><polygon class="cls-3" points="416.65 78.57 420.13 78.57 420.13 175.6 416.65 78.57"/><polygon class="cls-3" points="510.59 78.57 514.07 78.57 514.07 175.6 510.59 78.57"/><path class="cls-7" d="M457.93,360.42v65.07c0,16,10,28.89,22.36,28.89h0c12.34,0,22.36-12.93,22.36-28.89V360.42c0-16-10-28.9-22.36-28.9h0C467.94,331.52,457.93,344.46,457.93,360.42Zm22.36-19.1c9.51,0,17.22,10,17.22,22.26v58.75c0,12.29-7.71,22.25-17.22,22.25h0c-9.52,0-17.23-10-17.23-22.25V363.58c0-12.29,7.71-22.26,17.23-22.26Z" transform="translate(16 14)"/><rect class="cls-7" x="423.2" y="405.18" width="3.39" height="5.34" transform="translate(33.05 846.75) rotate(-90)"/><path class="cls-4" d="M480.39,278.33H401.21c36.19,49.95,33.39,194.56,33.39,194.56H447S444.19,328.28,480.39,278.33Z" transform="translate(16 14)"/><rect class="cls-7" x="423.2" y="391.85" width="3.39" height="5.34" transform="translate(46.37 833.42) rotate(-90)"/><rect class="cls-5" x="457.33" y="372.06" width="12.07" height="71.58" transform="translate(71.51 885.21) rotate(-90)"/><rect class="cls-7" x="423.2" y="378.03" width="3.39" height="5.34" transform="translate(60.2 819.6) rotate(-90)"/><rect class="cls-5" x="457.33" y="358.73" width="12.07" height="71.58" transform="translate(84.84 871.89) rotate(-90)"/><rect class="cls-5" x="457.33" y="344.91" width="12.07" height="71.58" transform="translate(98.66 858.06) rotate(-90)"/><path class="cls-5" d="M451.2,474.21h0a3.67,3.67,0,0,1-3.67,3.68H434a3.67,3.67,0,0,1-3.67-3.68h0a3.67,3.67,0,0,1,3.67-3.67h13.52A3.67,3.67,0,0,1,451.2,474.21Z" transform="translate(16 14)"/><path class="cls-3" d="M437,356V429.9a32.81,32.81,0,0,0,32.82,32.81h0a32.82,32.82,0,0,0,32.82-32.81V356a32.82,32.82,0,0,0-32.82-32.81h0A32.81,32.81,0,0,0,437,356Zm32.82-21.68A25.26,25.26,0,0,1,495.1,359.6v66.71a25.27,25.27,0,0,1-25.27,25.27h0a25.27,25.27,0,0,1-25.28-25.27V359.6a25.28,25.28,0,0,1,25.28-25.28Z" transform="translate(16 14)"/><path class="cls-3" d="M423.3,403.2v9.3a1.38,1.38,0,0,1-1.38,1.38h0a1.38,1.38,0,0,1-1.39-1.38v-9.3a1.38,1.38,0,0,1,1.39-1.38h0A1.38,1.38,0,0,1,423.3,403.2Z" transform="translate(16 14)"/><path class="cls-3" d="M423.3,389.87v9.31a1.38,1.38,0,0,1-1.38,1.38h0a1.38,1.38,0,0,1-1.39-1.38v-9.31a1.38,1.38,0,0,1,1.39-1.38h0A1.38,1.38,0,0,1,423.3,389.87Z" transform="translate(16 14)"/><path class="cls-3" d="M423.3,376.05v9.3a1.38,1.38,0,0,1-1.38,1.38h0a1.38,1.38,0,0,1-1.39-1.38v-9.3a1.38,1.38,0,0,1,1.39-1.38h0A1.38,1.38,0,0,1,423.3,376.05Z" transform="translate(16 14)"/><line class="cls-12" x1="358" y1="1000.33" x2="394" y2="1000.33"/><line class="cls-13" x1="358.38" y1="1019.21" x2="389.69" y2="1025.96"/><line class="cls-13" x1="358.93" y1="982.47" x2="390.25" y2="975.72"/><path class="cls-4" d="M563.67,453.62l-4.59-1.14-4.59-1.15s-24.78,68.25-23.32,74.14c0,.16.09.32.13.48a10.77,10.77,0,0,0,17.89,4.45l.34-.36C553.58,525.52,563.67,453.62,563.67,453.62Z" transform="translate(16 14)"/><ellipse class="cls-5" cx="564.52" cy="430.6" rx="38" ry="30.59" transform="translate(26.38 888.47) rotate(-76.03)"/><path class="cls-5" d="M576.23,464.39a27.71,27.71,0,0,1-21,3.57c-16.64-4.14-26-24.27-20.88-44.87,2.82-11.35,9.55-20.93,18.46-26.29a27.7,27.7,0,0,1,21-3.56c16.64,4.14,26,24.26,20.88,44.86C591.87,449.45,585.14,459,576.23,464.39Zm-22.9-66.73c-8.68,5.23-15.25,14.58-18,25.68-5,20.06,4,39.64,20.14,43.64,6.71,1.67,13.71.48,20.24-3.45,8.68-5.22,15.25-14.58,18-25.67,5-20.06-4-39.64-20.14-43.65C566.86,392.54,559.86,393.74,553.33,397.66Z" transform="translate(16 14)"/><path class="cls-3" d="M535.91,420.61l58.56,14.57c.24-1.24.42-2.49.54-3.72l-57.83-14.39C536.71,418.22,536.29,419.4,535.91,420.61Z" transform="translate(16 14)"/><path class="cls-3" d="M591.87,444.1c.47-1.15.89-2.33,1.27-3.54L534.57,426c-.23,1.24-.41,2.49-.54,3.72Z" transform="translate(16 14)"/><path class="cls-4" d="M442.29,218.54l.06,4.89.06,4.9s74.84,6.88,80.35,3.88l.45-.26a11.15,11.15,0,0,0-.24-19.08l-.46-.25C516.92,209.76,442.29,218.54,442.29,218.54Z" transform="translate(16 14)"/><ellipse class="cls-5" cx="419.01" cy="223.73" rx="39.33" ry="31.66" transform="translate(13.2 19.33) rotate(-0.73)"/><path class="cls-3" d="M416.53,255l-.79-62.46c-1.31.1-2.6.24-3.87.44l.78,61.69C413.92,254.82,415.22,254.93,416.53,255Z" transform="translate(16 14)"/><path class="cls-3" d="M425.35,192.8c-1.28-.17-2.57-.28-3.88-.34l.79,62.46c1.31-.09,2.6-.23,3.87-.43Z" transform="translate(16 14)"/><rect class="cls-4" x="82.46" y="255.69" width="179.34" height="13.28" transform="translate(-74.19 448.46) rotate(-90)"/><rect class="cls-4" x="120.66" y="255.69" width="179.34" height="13.28" transform="translate(-36 486.66) rotate(-90)"/><rect class="cls-3" x="180.24" y="270.88" width="24.4" height="122.88" transform="translate(-123.88 538.77) rotate(-90)"/><rect class="cls-3" x="180.24" y="242.67" width="24.4" height="108.86" transform="translate(-88.66 503.54) rotate(-90)"/><rect class="cls-3" x="180.24" y="213.67" width="24.4" height="96.41" transform="translate(-53.43 468.31) rotate(-90)"/><rect class="cls-3" x="180.24" y="186.33" width="24.4" height="80.63" transform="translate(-18.2 433.09) rotate(-90)"/><rect class="cls-3" x="180.24" y="159.4" width="24.4" height="64.02" transform="translate(17.03 397.86) rotate(-90)"/><path class="cls-4" d="M143.86,326.18A5.86,5.86,0,1,1,138,332,5.85,5.85,0,0,1,143.86,326.18Z" transform="translate(16 14)"/><path class="cls-4" d="M238.52,326.18a5.86,5.86,0,1,1-5.86,5.85A5.85,5.85,0,0,1,238.52,326.18Z" transform="translate(16 14)"/><path class="cls-4" d="M150.09,291.25a5.85,5.85,0,1,1-5.85,5.85A5.85,5.85,0,0,1,150.09,291.25Z" transform="translate(16 14)"/><path class="cls-4" d="M234.78,291.25a5.85,5.85,0,1,1-5.85,5.85A5.86,5.86,0,0,1,234.78,291.25Z" transform="translate(16 14)"/><path class="cls-6" d="M54.72,600.52a6.66,6.66,0,0,1,1.18-5.92l.1-.12c.51-.64,1-1.22,14.19-9.47a60.62,60.62,0,0,1-10-16.23,8,8,0,0,1-4-14.12,61.47,61.47,0,0,1,.55-22.22c-5.83-.18-6.32-.36-6.91-.58l-.12-.05a6.63,6.63,0,0,1-4.06-4.46A6.75,6.75,0,0,1,50.18,519l.11,0c.66-.2,1.2-.36,8.64,0a7.92,7.92,0,0,1,.76-6,8,8,0,0,1,7.52-4,60.83,60.83,0,0,1,26.48-20.76,8,8,0,0,1,13.9-3.85,60.78,60.78,0,0,1,33.32,4.15,8,8,0,0,1,12.36,4.36,7.88,7.88,0,0,1,.26,2.85,60.81,60.81,0,0,1,20.39,26.28,8,8,0,0,1,3.87,14.23,60.87,60.87,0,0,1-4.11,32.63,8.11,8.11,0,0,1,1.52,2.93,8,8,0,0,1-8.92,10,60.87,60.87,0,0,1-25.74,20.08,8,8,0,0,1-14.43,4A60.84,60.84,0,0,1,93.64,602a8,8,0,0,1-12.77-4,7.88,7.88,0,0,1-.22-3.23l-.51-.38c-15.5,10.56-16.3,10.77-17.14,11l-.12,0A6.76,6.76,0,0,1,54.72,600.52Z" transform="translate(16 14)"/><circle class="cls-3" cx="172.87" cy="529.85" r="4.38" transform="translate(-4.18 21.01) rotate(-2.2)"/><circle class="cls-3" cx="61.27" cy="560.86" r="4.38" transform="translate(-5.45 16.76) rotate(-2.2)"/><circle class="cls-3" cx="132.57" cy="601.16" r="4.38" transform="translate(-6.94 19.52) rotate(-2.2)"/><path class="cls-3" d="M97.34,490.72a4.38,4.38,0,1,1,5.4,3.06A4.37,4.37,0,0,1,97.34,490.72Z" transform="translate(16 14)"/><path class="cls-3" d="M165.33,577.67a4.39,4.39,0,1,1,6-1.66A4.4,4.4,0,0,1,165.33,577.67Z" transform="translate(16 14)"/><path class="cls-3" d="M64.49,520.68a4.39,4.39,0,1,1,6-1.66A4.39,4.39,0,0,1,64.49,520.68Z" transform="translate(16 14)"/><path class="cls-3" d="M149.38,497.09a4.38,4.38,0,1,1-1.66-6A4.38,4.38,0,0,1,149.38,497.09Z" transform="translate(16 14)"/><path class="cls-3" d="M92.39,597.93a4.38,4.38,0,1,1-1.66-6A4.38,4.38,0,0,1,92.39,597.93Z" transform="translate(16 14)"/><circle class="cls-5" cx="116.94" cy="545.06" r="57.88" transform="matrix(0.96, -0.27, 0.27, 0.96, -125.65, 65.2)"/><path class="cls-5" d="M60.68,560.69a58.4,58.4,0,1,1,71.9,40.63A58.45,58.45,0,0,1,60.68,560.69Zm111.53-31a57.36,57.36,0,1,0-39.91,70.62A57.43,57.43,0,0,0,172.21,529.7Z" transform="translate(16 14)"/><circle class="cls-4" cx="116.94" cy="545.06" r="53.57" transform="translate(-40.33 29.21) rotate(-6)"/><path class="cls-4" d="M64.83,559.54a54.09,54.09,0,1,1,66.59,37.63A54.16,54.16,0,0,1,64.83,559.54Zm103.23-28.69a53.05,53.05,0,1,0-36.91,65.33A53.11,53.11,0,0,0,168.06,530.85Z" transform="translate(16 14)"/><rect class="cls-7" x="154.68" y="530.71" width="15.52" height="3.4" transform="translate(647.94 247.37) rotate(74.47)"/><path class="cls-3" d="M142.94,531.84c3.08.11,5.62-1.22,5.69-3s-2.39-3.25-5.47-3.36c-2.45-.09-4.55.74-5.35,2-9.39-.65-84.07-5.73-86.49-5l-.08,0a3.17,3.17,0,0,0-.21,6l.08,0c2.36.88,77.21,1,86.63,1C138.45,530.79,140.49,531.76,142.94,531.84Z" transform="translate(16 14)"/><path class="cls-3" d="M48.65,526.52h0A3.68,3.68,0,0,1,51.09,522l.08,0c2.44-.72,71.71,4,86.39,5,1-1.27,3.18-2,5.62-1.94,3,.11,5.38,1.41,5.87,3.18a2.19,2.19,0,0,1,.09.72c-.07,2.06-2.8,3.59-6.22,3.47-2.44-.09-4.54-1-5.47-2.33-20.1,0-84.2-.21-86.52-1.08l-.06,0A3.59,3.59,0,0,1,48.65,526.52Zm99.41,1.92c-.36-1.29-2.47-2.33-4.92-2.42-2.17-.07-4.19.64-4.9,1.73l-.16.25-.3,0c-31-2.12-84.16-5.58-86.32-5l-.07,0a2.65,2.65,0,0,0-1.74,3.28h0A2.51,2.51,0,0,0,51.22,528l.07,0c2.11.69,55.33,1,86.45,1h.3l.15.27c.63,1.13,2.59,2,4.77,2.06,2.74.09,5.1-1,5.15-2.48A1.48,1.48,0,0,0,148.06,528.44Z" transform="translate(16 14)"/><path class="cls-3" d="M135.73,546.49c2.58-1.68,5.45-1.86,6.41-.39s-.37,4-2.95,5.7c-2.05,1.34-4.28,1.72-5.59,1.08-7.72,5.4-69.07,48.28-71.51,48.92l-.08,0a3.17,3.17,0,0,1-3.26-5l0-.06c1.57-2,65.62-40.71,73.68-45.59C132.43,549.71,133.68,547.83,135.73,546.49Z" transform="translate(16 14)"/><path class="cls-3" d="M57.71,599.69a3.57,3.57,0,0,1,.64-3.19l0-.07c1.59-2,61-37.95,73.57-45.56.1-1.63,1.44-3.48,3.48-4.81a8.69,8.69,0,0,1,4.06-1.46,3.21,3.21,0,0,1,3.06,1.22,2.63,2.63,0,0,1,.3.66c.49,1.77-.91,4.13-3.4,5.76-2,1.33-4.28,1.79-5.81,1.23-12.06,8.43-69,48.19-71.44,48.83l-.08,0A3.67,3.67,0,0,1,57.71,599.69Zm84.16-52.93a1.28,1.28,0,0,0-.16-.38,2.28,2.28,0,0,0-2.13-.75,7.7,7.7,0,0,0-3.57,1.29c-1.82,1.19-3.06,2.93-3,4.23v.3l-.26.16c-26.63,16.09-72.09,43.78-73.54,45.46l-.05.06a2.54,2.54,0,0,0-.46,2.28,2.66,2.66,0,0,0,3.19,1.91l.07,0c2.13-.65,45.85-31,71.34-48.84l.25-.17.27.13c1.18.57,3.27.14,5.09-1C141,550,142.23,548.05,141.87,546.76Z" transform="translate(16 14)"/><path class="cls-14" d="M242.56,368.14S94.5,369.5,79.5,369.5V326.14l38,0c0-9.12-2-138.66-2-138.66s-39,0-53-1l.58-68.58,3.17-.17" transform="translate(16 14)"/><circle class="cls-3" cx="95.16" cy="131.66" r="0.78"/><polygon class="cls-3" points="94.22 132.3 92.86 132.29 92.86 132.65 89.53 132.64 89.54 130.67 92.86 130.67 92.86 131.02 94.22 131.02 94.22 130.67 94.8 130.67 94.8 132.65 94.22 132.65 94.22 132.3"/><polygon class="cls-3" points="82.68 133.29 82.68 132.91 83.98 132.91 83.98 133.29 91.5 133.3 91.5 130.01 83.99 130 83.99 130.36 82.68 130.35 82.68 130 81.31 130 81.3 133.29 82.68 133.29"/><polygon class="cls-3" points="91.9 132.64 91.5 130.67 91.5 132.64 91.9 132.64"/><rect class="cls-3" x="66.06" y="116.98" width="2.55" height="1.31" transform="matrix(0, 1, -1, 0, 201.04, 64.43)"/><path class="cls-5" d="M245.46,356.69h9.22a0,0,0,0,1,0,0v18.42a3.28,3.28,0,0,1-3.28,3.28h-2.66a3.28,3.28,0,0,1-3.28-3.28V356.69A0,0,0,0,1,245.46,356.69Z" transform="translate(633.89 131.88) rotate(90.07)"/><path class="cls-4" d="M355.59,367.66l0-16.76-95.54,6a10.68,10.68,0,0,0-10,10.64h0a10.67,10.67,0,0,0,10,10.65l95.53,6.22Z" transform="translate(16 14)"/><path class="cls-4" d="M252.85,375.43h0a11.15,11.15,0,0,1,7.19-19l96.06-6,0,34.55-.52,0L260,378.68A11.15,11.15,0,0,1,252.85,375.43Zm102.28-24-95,6a10.18,10.18,0,0,0-6.57,17.35h0a10.21,10.21,0,0,0,6.55,3l95,6.18Z" transform="translate(16 14)"/><circle class="cls-3" cx="378.73" cy="367.68" r="25.32" transform="translate(-133.06 389.49) rotate(-45)"/><path class="cls-4" d="M376.26,392.88c.81.08,1.62.12,2.44.12a26.23,26.23,0,0,0,3.46-.23l3.5-3.49,2.07,2.07c.79-.3,1.56-.64,2.31-1l-2.72-2.72,5.06-5.05L396,386.2c.57-.54,1.12-1.1,1.64-1.68l-3.6-3.61,5.44-5.42,2.42,2.41c.34-.78.65-1.58.92-2.4l-1.67-1.68,2.66-2.65a25.59,25.59,0,0,0,0-6.92l-3-3,1.86-1.86a23.3,23.3,0,0,0-1-2.36l-2.56,2.55-5.05-5.05,3.61-3.6c-.52-.59-1.07-1.15-1.64-1.68l-3.63,3.61L387,347.38l2.59-2.58a24.17,24.17,0,0,0-2.35-1l-1.9,1.89-3.1-3.11a24.72,24.72,0,0,0-3.46-.24,21.91,21.91,0,0,0-2.44.11l-3.23,3.22L371,343.58c-.82.26-1.62.57-2.41.91l2.87,2.87L366,352.79l-4.05-4.05c-.59.52-1.15,1.06-1.69,1.64l4.07,4.07-5.05,5.05-3.17-3.18a23.81,23.81,0,0,0-1,2.31l2.52,2.53-4.07,4.06c-.07.8-.12,1.61-.12,2.43s0,1.64.12,2.44l3.67,3.68-2.35,2.35c.29.8.61,1.59,1,2.35l3-3,5.43,5.44L360.22,385c.53.57,1.09,1.12,1.68,1.64l4.05-4L371,387.6l-3,3c.77.36,1.56.68,2.36,1l2.32-2.32Zm9.4-6.93-4.83-4.84,5.06-5,4.83,4.84ZM379.18,366l-5.42-5.44,5.44-5.43,5.43,5.44Zm7.11-3.76,5,5.05-5.44,5.43-5-5.05Zm-8.77,5.42-5.06,5.05L367,367.29l5-5.05Zm1.66,1.67,5.05,5-5.06,5.05-5.05-5.06Zm13.2,9.9-4.83-4.84L393,369l4.83,4.84ZM404,367.71l-4.46,4.45-4.83-4.84,4.46-4.45Zm-6.5-6.51L393,365.65l-5.05-5,4.46-4.45Zm-6.7-6.72-4.46,4.45-5.43-5.44,4.46-4.45Zm-11.54-11.56,4.45,4.46-4.46,4.45-4.45-4.46ZM373.09,349l4.45,4.46-5.44,5.43-4.45-4.46ZM366,356.12l4.45,4.46-5.06,5-4.44-4.46Zm-11.56,11.53,4.84-4.83,4.45,4.46-4.84,4.83Zm6.11,6.13,4.84-4.83,5.43,5.44L366,379.22Zm7.09,7.1,4.84-4.83,5.05,5.06-4.85,4.83Zm11.55,1.89,4.83,4.85-4.85,4.83-4.83-4.85Z" transform="translate(16 14)"/><rect class="cls-5" x="336.91" y="361.6" width="37.37" height="12.12" transform="translate(739.66 26.48) rotate(90.07)"/><path class="cls-5" d="M349,386.82l0-38.34h13.09l0,38.35Zm1-37.37,0,36.4h11.15l0-36.4Z" transform="translate(16 14)"/><path class="cls-4" d="M66.86,201.82A5.86,5.86,0,1,1,61,207.68,5.86,5.86,0,0,1,66.86,201.82Z" transform="translate(16 14)"/><path class="cls-4" d="M66.86,222.82A5.86,5.86,0,1,1,61,228.68,5.86,5.86,0,0,1,66.86,222.82Z" transform="translate(16 14)"/><path class="cls-4" d="M66.86,244.82A5.86,5.86,0,1,1,61,250.68,5.86,5.86,0,0,1,66.86,244.82Z" transform="translate(16 14)"/><rect class="cls-3" x="361.9" y="449.3" width="12.05" height="2.13" transform="translate(-66.44 832.29) rotate(-90)"/><path class="cls-5" d="M360.5,453.88h0a2.52,2.52,0,0,0,2.51,2.51h9.83a2.51,2.51,0,0,0,2.51-2.51h0a2.51,2.51,0,0,0-2.51-2.51H363A2.51,2.51,0,0,0,360.5,453.88Z" transform="translate(16 14)"/><path class="cls-5" d="M360.66,456.23a3.33,3.33,0,0,1,2.35-5.68h9.83a3.33,3.33,0,1,1,0,6.65H363A3.31,3.31,0,0,1,360.66,456.23ZM374,452.68a1.7,1.7,0,0,0-1.2-.5H363a1.7,1.7,0,0,0-1.2.5,1.67,1.67,0,0,0-.49,1.2,1.74,1.74,0,0,0,1.69,1.7h9.83a1.71,1.71,0,0,0,1.7-1.7A1.68,1.68,0,0,0,374,452.68Z" transform="translate(16 14)"/><rect class="cls-3" x="379.57" y="449.3" width="12.05" height="2.13" transform="translate(-48.76 849.97) rotate(-90)"/><path class="cls-5" d="M378.17,453.88h0a2.52,2.52,0,0,0,2.51,2.51h9.83a2.51,2.51,0,0,0,2.51-2.51h0a2.51,2.51,0,0,0-2.51-2.51h-9.83A2.51,2.51,0,0,0,378.17,453.88Z" transform="translate(16 14)"/><path class="cls-5" d="M378.33,456.23a3.29,3.29,0,0,1-1-2.35,3.33,3.33,0,0,1,3.32-3.33h9.83a3.35,3.35,0,0,1,3.33,3.33,3.33,3.33,0,0,1-3.33,3.32h-9.83A3.31,3.31,0,0,1,378.33,456.23Zm13.38-3.55a1.7,1.7,0,0,0-1.2-.5h-9.83a1.7,1.7,0,0,0-1.69,1.7,1.74,1.74,0,0,0,1.69,1.7h9.83a1.7,1.7,0,0,0,1.7-1.7A1.68,1.68,0,0,0,391.71,452.68Z" transform="translate(16 14)"/><rect class="cls-3" x="377.16" y="425.6" width="11.96" height="2.13" transform="translate(825.8 57.52) rotate(90)"/><path class="cls-5" d="M375.72,423.18h0a2.49,2.49,0,0,1,2.49-2.49h9.86a2.48,2.48,0,0,1,2.49,2.49h0a2.48,2.48,0,0,1-2.49,2.49h-9.86A2.49,2.49,0,0,1,375.72,423.18Z" transform="translate(16 14)"/><path class="cls-5" d="M375.88,425.52a3.31,3.31,0,0,1,2.33-5.65h9.86a3.31,3.31,0,0,1,0,6.62h-9.86A3.28,3.28,0,0,1,375.88,425.52ZM389.26,422a1.66,1.66,0,0,0-1.19-.49h-9.86a1.68,1.68,0,0,0-1.68,1.68,1.72,1.72,0,0,0,1.68,1.68h9.86a1.68,1.68,0,0,0,1.68-1.68A1.71,1.71,0,0,0,389.26,422Z" transform="translate(16 14)"/><rect class="cls-3" x="394.82" y="425.6" width="11.96" height="2.13" transform="translate(843.46 39.86) rotate(90)"/><path class="cls-3" d="M408.22,438.5V428.22H363.55a3.12,3.12,0,0,0-3.12,3.12v14.31a3.12,3.12,0,0,0,3.12,3.12h44.67Z" transform="translate(16 14)"/><path class="cls-3" d="M360.77,448.43a3.91,3.91,0,0,1-1.15-2.78V431.34a3.93,3.93,0,0,1,3.93-3.93H409v22.17H363.55A3.91,3.91,0,0,1,360.77,448.43ZM407.41,429H363.55a2.29,2.29,0,0,0-2.3,2.3v14.31a2.35,2.35,0,0,0,2.3,2.3h43.86Z" transform="translate(16 14)"/><path class="cls-4" d="M215.58,482.69c0-10.56,10.6-19.12,23.69-19.12,12.27,0,22.37,7.53,23.57,17.18a31.32,31.32,0,0,0,5.24.44c20.16,0,36.51-19.06,36.51-42.58S288.24,396,268.08,396a31.89,31.89,0,0,0-5.28.45c-1.34,9.53-11.36,16.94-23.53,16.94-13.09,0-23.69-8.56-23.69-19.12a15.6,15.6,0,0,1,.76-4.83,40.44,40.44,0,0,0-18.6-4.57c-25.44,0-46.06,24.05-46.06,53.72s20.62,53.72,46.06,53.72a40.48,40.48,0,0,0,18.67-4.61A15.74,15.74,0,0,1,215.58,482.69Z" transform="translate(16 14)"/><rect class="cls-5" x="277.46" y="365.39" width="13.57" height="146.22" transform="translate(738.74 168.25) rotate(90)"/><path class="cls-5" d="M210.32,446.09V430.9H358.16v15.19Zm1.62-13.56v11.94H356.54V432.53Z" transform="translate(16 14)"/><rect class="cls-5" x="352.11" y="436.95" width="13.57" height="3.08" transform="translate(813.39 93.6) rotate(90)"/><path class="cls-5" d="M356.54,446.09V430.9h4.71v15.19Zm1.62-13.56v11.93h1.46V432.53Z" transform="translate(16 14)"/><rect class="cls-5" x="374.46" y="428.44" width="1.87" height="29.94" transform="translate(834.82 82.03) rotate(90)"/><rect class="cls-5" x="374.47" y="418.62" width="1.87" height="29.93" transform="translate(825 72.19) rotate(90)"/><path class="cls-3" d="M408.22,438.5V428.22H394.6a10.27,10.27,0,0,0-10.27,10.28h0a10.27,10.27,0,0,0,10.27,10.27h13.62Z" transform="translate(16 14)"/><path class="cls-5" d="M393.38,423.18h0a2.49,2.49,0,0,1,2.49-2.49h9.86a2.48,2.48,0,0,1,2.49,2.49h0a2.48,2.48,0,0,1-2.49,2.49h-9.86A2.49,2.49,0,0,1,393.38,423.18Z" transform="translate(16 14)"/><path class="cls-5" d="M393.54,425.52a3.31,3.31,0,0,1,2.33-5.65h9.86a3.31,3.31,0,0,1,0,6.62h-9.85A3.29,3.29,0,0,1,393.54,425.52ZM406.92,422a1.66,1.66,0,0,0-1.19-.49h-9.86a1.68,1.68,0,0,0-1.68,1.68,1.73,1.73,0,0,0,1.69,1.68h9.85a1.68,1.68,0,0,0,1.19-2.87Z" transform="translate(16 14)"/><path class="cls-3" d="M230.14,427.06a3.56,3.56,0,1,0-3.36-4,27.31,27.31,0,0,1-9-6,25,25,0,0,1-5.21-8.26,8.5,8.5,0,0,1-5.7,1.45c-3.41-.33-10.61-2-14.81,1.13h0a12.26,12.26,0,0,0-2.31,1.91h0a3.64,3.64,0,0,0-1,2.5,3.4,3.4,0,1,0,6.79,0,3.6,3.6,0,0,0-1.24-2.74,13.56,13.56,0,0,1,5.73-.56c4.26.5,6.57,1.25,8.48,3s2.07,6.06,2.07,6.06a6.15,6.15,0,0,1,6.55.16c3.67,2.18,8.85,5.35,12.84,5.42h.19Z" transform="translate(16 14)"/><path class="cls-3" d="M230.14,449.93a3.56,3.56,0,1,1-3.36,4,27.47,27.47,0,0,0-9,6,25,25,0,0,0-5.21,8.26,8.5,8.5,0,0,0-5.7-1.45c-3.41.33-10.61,2-14.81-1.13h0a12.26,12.26,0,0,1-2.31-1.91h0a3.62,3.62,0,0,1-1-2.5,3.4,3.4,0,1,1,6.79,0,3.6,3.6,0,0,1-1.24,2.74,13.53,13.53,0,0,0,5.73.57c4.26-.51,6.57-1.26,8.48-3s2.07-6.06,2.07-6.06a6.15,6.15,0,0,0,6.55-.16c3.67-2.18,8.85-5.35,12.84-5.42h.19Z" transform="translate(16 14)"/><rect class="cls-4" x="104.48" y="433.12" width="7.91" height="40.83"/><path class="cls-3" d="M96.09,457.93c1.47,3.55-1.87,8.3-7.46,10.61s-11.3,1.29-12.77-2.27,1.87-8.31,7.46-10.61S94.62,454.37,96.09,457.93Z" transform="translate(16 14)"/><rect class="cls-4" x="134" y="424.9" width="7.91" height="40.83"/><path class="cls-3" d="M125.57,449.71c1.46,3.55-1.87,8.31-7.46,10.61s-11.3,1.29-12.77-2.27,1.87-8.3,7.46-10.61S124.1,446.15,125.57,449.71Z" transform="translate(16 14)"/><polygon class="cls-5" points="141.87 416.8 104.43 424.7 104.43 438.63 141.86 430.73 141.87 416.8"/><path class="cls-4" d="M282.57,1049.75a5.86,5.86,0,1,1,5.86,5.85A5.86,5.86,0,0,1,282.57,1049.75Z" transform="translate(16 14)"/><path class="cls-4" d="M303.57,1049.75a5.86,5.86,0,1,1,5.86,5.85A5.86,5.86,0,0,1,303.57,1049.75Z" transform="translate(16 14)"/><path class="cls-4" d="M325.57,1049.75a5.86,5.86,0,1,1,5.86,5.85A5.86,5.86,0,0,1,325.57,1049.75Z" transform="translate(16 14)"/><path class="cls-4" d="M346.57,1049.75a5.86,5.86,0,1,1,5.86,5.85A5.86,5.86,0,0,1,346.57,1049.75Z" transform="translate(16 14)"/><path class="cls-4" d="M367.57,1049.75a5.86,5.86,0,1,1,5.86,5.85A5.86,5.86,0,0,1,367.57,1049.75Z" transform="translate(16 14)"/><path class="cls-4" d="M389.57,1049.75a5.86,5.86,0,1,1,5.86,5.85A5.86,5.86,0,0,1,389.57,1049.75Z" transform="translate(16 14)"/></g></svg>